<svg xmlns="http://www.w3.org/2000/svg" xmlns:xlink="http://www.w3.org/1999/xlink" width="500" zoomAndPan="magnify" viewBox="0 0 375 374.999991" height="500" preserveAspectRatio="xMidYMid meet" version="1.0"><defs><g/><clipPath id="3b63f37a0a"><path d="M 86.355469 160.507812 L 138 160.507812 L 138 206 L 86.355469 206 Z M 86.355469 160.507812 " clip-rule="nonzero"/></clipPath><clipPath id="2b4d614b3d"><path d="M 86.355469 160.507812 L 138 160.507812 L 138 206 L 86.355469 206 Z M 86.355469 160.507812 " clip-rule="nonzero"/></clipPath><clipPath id="2e03343413"><rect x="0" width="262" y="0" height="82"/></clipPath><clipPath id="e04407d7fa"><path d="M 0.121094 3 L 6 3 L 6 14 L 0.121094 14 Z M 0.121094 3 " clip-rule="nonzero"/></clipPath><clipPath id="dbfa1d2ddc"><rect x="0" width="229" y="0" height="19"/></clipPath></defs><g clip-path="url(#3b63f37a0a)"><path fill="#c24914" d="M 89.550781 163.050781 L 109.5625 180.726562 L 110.929688 179.5 L 96.117188 166.933594 C 95.449219 166.394531 94.789062 165.867188 94.140625 165.359375 C 93.371094 164.761719 92.621094 164.195312 91.886719 163.667969 C 89.917969 162.253906 88.082031 161.128906 86.484375 160.519531 C 87.367188 162.164062 88.902344 164.015625 90.773438 165.972656 C 91.234375 166.453125 91.710938 166.941406 92.207031 167.433594 C 92.8125 168.03125 93.441406 168.636719 94.082031 169.25 L 108.113281 182.027344 L 108.460938 181.714844 L 94.609375 169.097656 C 88.0625 162.683594 88.28125 162.058594 88.28125 162.058594 Z M 137.757812 203.976562 C 137.621094 203.855469 137.417969 203.84375 137.191406 203.917969 C 137.621094 202.875 137.367188 201.632812 136.472656 200.847656 C 135.894531 200.339844 135.160156 200.121094 134.445312 200.183594 C 134.347656 200.195312 134.289062 200.074219 134.355469 200 L 134.359375 199.992188 L 133.65625 199.375 C 133.5625 199.289062 133.414062 199.300781 133.328125 199.394531 L 133.210938 199.527344 C 133.160156 199.585938 133.066406 199.574219 133.03125 199.507812 C 131.996094 197.464844 130 195.617188 127.296875 193.914062 C 127.089844 193.785156 127.050781 193.503906 127.210938 193.320312 C 127.238281 193.285156 127.253906 193.242188 127.25 193.199219 C 127.246094 193.15625 127.230469 193.117188 127.195312 193.085938 L 126.609375 192.574219 C 126.546875 192.519531 126.453125 192.523438 126.398438 192.585938 C 126.328125 192.667969 126.226562 192.710938 126.128906 192.71875 C 126.027344 192.726562 125.921875 192.695312 125.839844 192.621094 L 125.492188 192.316406 C 125.519531 192.304688 125.546875 192.289062 125.570312 192.265625 L 125.90625 191.882812 C 125.953125 191.828125 125.964844 191.746094 125.929688 191.683594 L 125.804688 191.445312 L 125.894531 191.503906 C 126.046875 191.605469 126.25 191.578125 126.371094 191.4375 L 126.394531 191.414062 C 126.53125 191.257812 126.515625 191.027344 126.363281 190.890625 L 126.316406 190.851562 C 126.355469 190.886719 127.339844 189.628906 127.429688 189.515625 C 128.582031 188.023438 129.429688 186.003906 128.644531 184.152344 C 128.074219 182.800781 126.476562 182.085938 125.125 182.761719 C 124.5625 183.046875 124.191406 183.675781 124.402344 184.300781 C 124.703125 185.183594 125.921875 185.5625 126.753906 184.992188 C 126.753906 184.992188 127.222656 184.65625 127.242188 184.183594 C 127.445312 184.539062 127.566406 184.953125 127.617188 185.355469 C 127.75 186.460938 127.089844 187.203125 126.414062 187.976562 L 124.984375 189.601562 L 124.519531 189.195312 C 124.398438 189.085938 124.210938 189.097656 124.101562 189.21875 L 124.015625 189.320312 C 123.933594 189.414062 123.917969 189.542969 123.972656 189.652344 L 124.03125 189.761719 L 123.832031 189.734375 C 123.730469 189.71875 123.632812 189.753906 123.566406 189.832031 L 123.371094 190.050781 L 115.136719 183.066406 L 114.777344 182.761719 L 113.625 181.785156 L 112.195312 180.574219 L 112.195312 180.570312 L 110.765625 181.785156 L 109.613281 182.761719 L 109.253906 183.066406 L 110.691406 184.375 L 111.847656 185.429688 L 112.195312 185.746094 L 120.503906 193.3125 L 120.257812 193.59375 C 120.191406 193.671875 120.167969 193.773438 120.195312 193.867188 L 120.25 194.066406 L 120.132812 194.023438 C 120.019531 193.980469 119.890625 194.011719 119.808594 194.105469 L 119.71875 194.203125 C 119.613281 194.328125 119.625 194.511719 119.746094 194.621094 L 119.96875 194.816406 C 119.660156 195.136719 119.039062 195.863281 118.96875 195.949219 C 118.777344 196.175781 118.59375 196.417969 118.417969 196.667969 C 117.972656 197.324219 117.605469 198.050781 117.417969 198.808594 C 117.414062 198.824219 117.410156 198.835938 117.410156 198.847656 C 117.386719 198.9375 117.367188 199.027344 117.351562 199.121094 C 117.226562 199.820312 117.257812 200.542969 117.523438 201.25 C 118.035156 202.625 119.597656 203.410156 120.976562 202.792969 C 121.554688 202.535156 121.953125 201.921875 121.765625 201.289062 C 121.503906 200.394531 120.304688 199.960938 119.445312 200.492188 C 119.445312 200.492188 118.964844 200.8125 118.921875 201.28125 C 118.738281 200.917969 118.632812 200.5 118.601562 200.09375 C 118.53125 199.164062 119.007812 198.511719 119.582031 197.886719 C 119.820312 197.691406 120.046875 197.484375 120.261719 197.269531 C 120.351562 197.179688 121.203125 196.3125 121.402344 196.0625 L 121.667969 196.230469 C 121.820312 196.367188 122.054688 196.351562 122.1875 196.199219 L 122.210938 196.171875 C 122.332031 196.035156 122.332031 195.828125 122.214844 195.6875 L 122.144531 195.605469 L 122.398438 195.699219 C 122.464844 195.726562 122.542969 195.707031 122.589844 195.652344 L 122.929688 195.269531 C 122.980469 195.210938 122.984375 195.128906 122.949219 195.066406 L 123.367188 195.433594 C 123.53125 195.578125 123.550781 195.828125 123.402344 195.992188 C 123.371094 196.027344 123.359375 196.074219 123.363281 196.117188 C 123.363281 196.164062 123.382812 196.207031 123.421875 196.238281 L 123.96875 196.71875 C 124.046875 196.789062 124.167969 196.78125 124.234375 196.703125 C 124.382812 196.535156 124.632812 196.527344 124.792969 196.667969 C 124.808594 196.679688 124.824219 196.695312 124.839844 196.710938 C 126.875 199.175781 128.960938 200.917969 131.117188 201.679688 C 131.191406 201.707031 131.214844 201.800781 131.164062 201.859375 L 130.996094 202.050781 C 130.910156 202.144531 130.917969 202.292969 131.015625 202.378906 L 131.71875 202.996094 L 131.777344 202.929688 C 131.84375 202.855469 131.96875 202.898438 131.972656 203 C 132 203.710938 132.3125 204.414062 132.890625 204.925781 C 133.800781 205.722656 135.089844 205.804688 136.074219 205.214844 C 136.042969 205.429688 136.085938 205.617188 136.214844 205.730469 C 136.488281 205.976562 137.058594 205.777344 137.484375 205.292969 C 137.910156 204.808594 138.035156 204.21875 137.757812 203.976562 Z M 124.648438 183.285156 C 124.203125 184.347656 125.234375 185.3125 126.546875 184.953125 C 125.652344 185.582031 123.8125 184.570312 124.648438 183.285156 Z M 126.867188 182.753906 C 128.34375 183.214844 129.175781 185.042969 128.589844 186.585938 C 128.585938 185.695312 128.46875 184.96875 128.46875 184.96875 C 128.355469 183.753906 126.90625 182.78125 126.867188 182.753906 Z M 121.476562 202.292969 C 121.964844 201.25 120.980469 200.242188 119.652344 200.546875 C 120.574219 199.957031 122.367188 201.042969 121.476562 202.292969 Z M 119.238281 202.726562 C 117.851562 202.226562 117.101562 200.511719 117.597656 199.039062 C 117.625 199.03125 117.648438 199.023438 117.675781 199.011719 C 117.660156 199.8125 117.734375 200.441406 117.734375 200.441406 C 117.796875 201.664062 119.199219 202.695312 119.238281 202.726562 Z M 126.832031 194.496094 C 129.144531 195.378906 131.023438 196.960938 132.382812 199.375 C 130.777344 197.503906 128.902344 195.902344 126.832031 194.496094 Z M 136.8125 203.742188 C 137.207031 201.898438 135.996094 200.511719 134.347656 200.882812 C 136.027344 199.980469 137.695312 201.921875 136.8125 203.742188 Z M 136.8125 203.742188 " fill-opacity="1" fill-rule="nonzero"/></g><path fill="#ffffff" d="M 122.101562 191.796875 L 120.929688 193.070312 L 112.542969 185.429688 L 112.195312 185.113281 L 111.042969 184.066406 L 109.613281 182.761719 L 110.765625 181.785156 L 112.195312 183.046875 L 113.347656 184.066406 L 113.699219 184.375 Z M 122.101562 191.796875 " fill-opacity="1" fill-rule="nonzero"/><g clip-path="url(#2b4d614b3d)"><path fill="#c24914" d="M 132.503906 163.667969 C 131.769531 164.195312 131.015625 164.761719 130.25 165.359375 C 129.601562 165.867188 128.9375 166.394531 128.273438 166.933594 L 112.894531 179.980469 L 112.195312 180.574219 L 110.765625 181.785156 L 109.613281 182.761719 L 109.253906 183.066406 L 109.125 183.175781 L 101.019531 190.050781 L 100.824219 189.832031 C 100.757812 189.753906 100.65625 189.71875 100.558594 189.734375 L 100.355469 189.761719 L 100.414062 189.652344 C 100.472656 189.542969 100.457031 189.414062 100.375 189.320312 L 100.285156 189.21875 C 100.179688 189.097656 99.992188 189.085938 99.871094 189.195312 L 99.40625 189.601562 L 97.976562 187.976562 C 97.300781 187.203125 96.640625 186.460938 96.773438 185.355469 C 96.824219 184.953125 96.945312 184.539062 97.144531 184.183594 C 97.167969 184.65625 97.632812 184.992188 97.632812 184.992188 C 98.46875 185.5625 99.683594 185.183594 99.984375 184.300781 C 100.199219 183.675781 99.828125 183.046875 99.261719 182.761719 C 97.910156 182.085938 96.316406 182.800781 95.742188 184.152344 C 94.960938 186.003906 95.808594 188.023438 96.960938 189.515625 C 97.050781 189.628906 98.035156 190.886719 98.074219 190.851562 L 98.027344 190.890625 C 97.875 191.027344 97.859375 191.257812 97.992188 191.414062 L 98.015625 191.4375 C 98.136719 191.578125 98.34375 191.605469 98.496094 191.503906 L 98.585938 191.445312 L 98.460938 191.683594 C 98.425781 191.746094 98.433594 191.828125 98.484375 191.882812 L 98.820312 192.265625 C 98.839844 192.289062 98.867188 192.304688 98.894531 192.316406 L 98.546875 192.621094 C 98.464844 192.695312 98.363281 192.726562 98.261719 192.71875 C 98.160156 192.710938 98.0625 192.667969 97.992188 192.585938 C 97.9375 192.523438 97.839844 192.519531 97.78125 192.574219 L 97.195312 193.085938 C 97.160156 193.117188 97.140625 193.160156 97.136719 193.199219 C 97.136719 193.242188 97.148438 193.285156 97.179688 193.320312 C 97.339844 193.503906 97.296875 193.785156 97.089844 193.914062 C 94.390625 195.617188 92.394531 197.464844 91.359375 199.507812 C 91.324219 199.574219 91.230469 199.585938 91.175781 199.527344 L 91.0625 199.394531 C 90.976562 199.300781 90.828125 199.289062 90.730469 199.375 L 90.027344 199.992188 L 90.035156 200 C 90.101562 200.074219 90.042969 200.195312 89.941406 200.183594 C 89.230469 200.121094 88.496094 200.339844 87.914062 200.847656 C 87.023438 201.632812 86.769531 202.875 87.199219 203.917969 C 86.972656 203.84375 86.765625 203.855469 86.632812 203.976562 C 86.355469 204.21875 86.476562 204.808594 86.902344 205.292969 C 87.328125 205.777344 87.898438 205.976562 88.175781 205.734375 C 88.304688 205.621094 88.347656 205.433594 88.3125 205.214844 C 89.296875 205.804688 90.589844 205.722656 91.496094 204.925781 C 92.078125 204.414062 92.386719 203.714844 92.417969 203 C 92.421875 202.898438 92.546875 202.855469 92.613281 202.929688 L 92.667969 202.996094 L 93.371094 202.378906 C 93.46875 202.292969 93.480469 202.148438 93.394531 202.050781 L 93.226562 201.859375 C 93.175781 201.800781 93.199219 201.707031 93.269531 201.679688 C 95.429688 200.917969 97.515625 199.175781 99.550781 196.714844 C 99.5625 196.695312 99.578125 196.679688 99.59375 196.667969 C 99.757812 196.527344 100.007812 196.535156 100.152344 196.703125 C 100.222656 196.78125 100.34375 196.789062 100.421875 196.71875 L 100.96875 196.238281 C 101.003906 196.207031 101.023438 196.164062 101.027344 196.121094 C 101.03125 196.074219 101.015625 196.027344 100.984375 195.992188 C 100.839844 195.828125 100.855469 195.578125 101.019531 195.4375 L 101.441406 195.066406 C 101.40625 195.128906 101.410156 195.210938 101.460938 195.269531 L 101.796875 195.652344 C 101.847656 195.707031 101.921875 195.726562 101.992188 195.703125 L 102.246094 195.605469 L 102.175781 195.6875 C 102.054688 195.828125 102.054688 196.035156 102.175781 196.171875 L 102.199219 196.199219 C 102.335938 196.351562 102.566406 196.367188 102.722656 196.230469 L 102.984375 196.0625 C 103.183594 196.316406 104.039062 197.179688 104.128906 197.269531 C 104.339844 197.484375 104.566406 197.691406 104.808594 197.886719 C 105.382812 198.511719 105.859375 199.164062 105.785156 200.09375 C 105.753906 200.5 105.648438 200.917969 105.464844 201.28125 C 105.421875 200.8125 104.941406 200.496094 104.941406 200.496094 C 104.085938 199.960938 102.886719 200.394531 102.621094 201.289062 C 102.4375 201.925781 102.835938 202.535156 103.410156 202.792969 C 104.792969 203.410156 106.355469 202.625 106.867188 201.25 C 107.132812 200.542969 107.164062 199.820312 107.039062 199.121094 C 107.019531 199.03125 107 198.941406 106.980469 198.847656 C 106.976562 198.835938 106.972656 198.824219 106.96875 198.808594 C 106.78125 198.050781 106.417969 197.324219 105.96875 196.667969 C 105.796875 196.417969 105.613281 196.175781 105.417969 195.949219 C 105.347656 195.863281 104.730469 195.140625 104.421875 194.816406 L 104.640625 194.621094 C 104.761719 194.515625 104.777344 194.328125 104.667969 194.207031 L 104.578125 194.105469 C 104.5 194.011719 104.371094 193.980469 104.257812 194.023438 L 104.140625 194.066406 L 104.195312 193.871094 C 104.222656 193.773438 104.199219 193.671875 104.132812 193.597656 L 103.886719 193.316406 L 112.195312 185.746094 L 112.542969 185.429688 L 113.699219 184.375 L 115.136719 183.066406 L 130.304688 169.25 C 130.949219 168.636719 131.574219 168.03125 132.179688 167.433594 C 132.675781 166.941406 133.15625 166.453125 133.613281 165.972656 C 135.488281 164.015625 137.019531 162.164062 137.90625 160.519531 C 136.308594 161.128906 134.472656 162.253906 132.503906 163.667969 Z M 99.738281 183.285156 C 100.574219 184.570312 98.738281 185.582031 97.839844 184.953125 C 99.15625 185.3125 100.183594 184.347656 99.738281 183.285156 Z M 95.796875 186.585938 C 95.214844 185.042969 96.046875 183.214844 97.523438 182.753906 C 97.484375 182.78125 96.035156 183.753906 95.917969 184.96875 C 95.917969 184.96875 95.800781 185.695312 95.796875 186.585938 Z M 87.574219 203.742188 C 86.695312 201.921875 88.363281 199.980469 90.039062 200.882812 C 88.394531 200.511719 87.179688 201.898438 87.574219 203.742188 Z M 92.007812 199.375 C 93.367188 196.960938 95.246094 195.378906 97.558594 194.496094 C 95.488281 195.902344 93.609375 197.503906 92.007812 199.375 Z M 102.914062 202.292969 C 102.023438 201.042969 103.8125 199.957031 104.738281 200.546875 C 103.40625 200.242188 102.421875 201.25 102.914062 202.292969 Z M 106.65625 200.441406 C 106.65625 200.441406 106.730469 199.8125 106.714844 199.011719 C 106.738281 199.023438 106.765625 199.03125 106.792969 199.039062 C 107.285156 200.511719 106.539062 202.226562 105.152344 202.726562 C 105.191406 202.695312 106.59375 201.664062 106.65625 200.441406 Z M 106.65625 200.441406 " fill-opacity="1" fill-rule="nonzero"/></g><path fill="#ffffff" d="M 102.289062 191.796875 L 134.839844 163.050781 L 136.105469 162.058594 C 136.105469 162.058594 136.324219 162.683594 129.777344 169.097656 L 103.460938 193.070312 Z M 102.289062 191.796875 " fill-opacity="1" fill-rule="nonzero"/><g transform="matrix(1, 0, 0, 1, 56, 142)"><g clip-path="url(#2e03343413)"><g fill="#c24914" fill-opacity="1"><g transform="translate(1.037432, 57.67164)"><g><path d="M 0.46875 2.890625 L 3.15625 0.671875 L 3.15625 -13.5625 C 2.800781 -14.1875 2.285156 -14.8125 1.609375 -15.4375 C 0.890625 -16.0625 0.351562 -16.710938 0 -17.390625 C 0.351562 -17.117188 0.6875 -16.984375 1 -16.984375 C 1.226562 -16.984375 1.453125 -17.03125 1.671875 -17.125 C 1.898438 -17.207031 2.171875 -17.34375 2.484375 -17.53125 C 2.753906 -17.65625 2.976562 -17.742188 3.15625 -17.796875 L 3.15625 -35.984375 L 0.46875 -38.203125 C 1.769531 -38.203125 2.710938 -38.3125 3.296875 -38.53125 L 3.296875 -39.484375 C 3.472656 -39.484375 3.875 -39.660156 4.5 -40.015625 C 4.851562 -40.460938 5.613281 -40.6875 6.78125 -40.6875 C 7.71875 -40.6875 8.476562 -40.507812 9.0625 -40.15625 C 9.601562 -39.75 9.984375 -39.546875 10.203125 -39.546875 C 10.828125 -39.546875 11.992188 -40.035156 13.703125 -41.015625 C 15.398438 -39.992188 16.609375 -39.484375 17.328125 -39.484375 C 17.585938 -39.484375 18.007812 -39.679688 18.59375 -40.078125 C 19.132812 -40.484375 19.851562 -40.6875 20.75 -40.6875 C 21.6875 -40.6875 22.359375 -40.550781 22.765625 -40.28125 C 23.117188 -40.007812 23.296875 -39.742188 23.296875 -39.484375 C 23.296875 -39.171875 23.585938 -38.878906 24.171875 -38.609375 C 24.703125 -38.335938 25.640625 -38.203125 26.984375 -38.203125 L 24.234375 -35.984375 L 24.234375 -29 L 26.984375 -26.859375 C 25.640625 -26.859375 24.703125 -26.722656 24.171875 -26.453125 C 23.585938 -26.179688 23.296875 -25.890625 23.296875 -25.578125 C 23.296875 -25.265625 23.117188 -24.972656 22.765625 -24.703125 C 22.359375 -24.441406 21.6875 -24.3125 20.75 -24.3125 C 19.8125 -24.3125 19.160156 -24.441406 18.796875 -24.703125 C 18.390625 -24.972656 18.1875 -25.265625 18.1875 -25.578125 C 18.1875 -25.890625 17.921875 -26.179688 17.390625 -26.453125 C 16.804688 -26.722656 15.84375 -26.859375 14.5 -26.859375 L 17.1875 -29 L 17.1875 -33.03125 L 13.703125 -33.96875 L 10.34375 -33.03125 L 10.34375 -21.21875 L 12.890625 -21.21875 L 15.109375 -23.90625 C 15.109375 -22.695312 15.21875 -21.753906 15.4375 -21.078125 L 16.453125 -21.078125 C 16.398438 -20.859375 16.554688 -20.457031 16.921875 -19.875 C 17.367188 -19.601562 17.59375 -18.910156 17.59375 -17.796875 L 17.59375 -17.53125 C 17.59375 -16.363281 17.367188 -15.644531 16.921875 -15.375 C 16.554688 -14.925781 16.398438 -14.523438 16.453125 -14.171875 L 15.4375 -14.171875 C 15.21875 -13.585938 15.109375 -12.664062 15.109375 -11.40625 L 12.890625 -14.03125 L 10.34375 -14.03125 L 10.34375 -2.21875 L 13.703125 -1.34375 L 17.1875 -2.28125 L 17.1875 -6.25 L 14.5 -8.453125 C 15.84375 -8.453125 16.804688 -8.585938 17.390625 -8.859375 C 17.921875 -9.128906 18.1875 -9.421875 18.1875 -9.734375 C 18.1875 -10.003906 18.390625 -10.273438 18.796875 -10.546875 C 19.160156 -10.804688 19.8125 -10.9375 20.75 -10.9375 C 21.6875 -10.9375 22.359375 -10.804688 22.765625 -10.546875 C 23.117188 -10.273438 23.296875 -10.003906 23.296875 -9.734375 C 23.296875 -9.421875 23.585938 -9.128906 24.171875 -8.859375 C 24.703125 -8.585938 25.640625 -8.453125 26.984375 -8.453125 L 24.234375 -6.25 L 24.234375 0.671875 L 26.984375 2.890625 C 25.640625 2.890625 24.703125 3.023438 24.171875 3.296875 C 23.585938 3.554688 23.296875 3.820312 23.296875 4.09375 C 23.296875 4.40625 23.117188 4.695312 22.765625 4.96875 C 22.359375 5.238281 21.6875 5.375 20.75 5.375 C 19.851562 5.375 19.132812 5.171875 18.59375 4.765625 C 18.007812 4.359375 17.585938 4.15625 17.328125 4.15625 C 16.785156 4.15625 15.578125 4.671875 13.703125 5.703125 C 11.992188 4.722656 10.828125 4.234375 10.203125 4.234375 C 9.710938 4.234375 9.3125 4.390625 9 4.703125 C 8.726562 5.148438 8.007812 5.375 6.84375 5.375 L 6.640625 5.375 C 5.484375 5.375 4.769531 5.148438 4.5 4.703125 C 4.09375 4.390625 3.753906 4.234375 3.484375 4.234375 L 3.296875 4.234375 L 3.296875 3.296875 C 2.753906 3.023438 1.8125 2.890625 0.46875 2.890625 Z M 0.46875 2.890625 "/></g></g></g><g fill="#c24914" fill-opacity="1"><g transform="translate(31.320068, 57.67164)"><g/></g></g><g fill="#c24914" fill-opacity="1"><g transform="translate(48.106017, 57.67164)"><g/></g></g><g fill="#c24914" fill-opacity="1"><g transform="translate(64.891966, 57.67164)"><g/></g></g><g fill="#c24914" fill-opacity="1"><g transform="translate(81.678455, 57.67164)"><g><path d="M 10.34375 -17.453125 L 13.703125 -16.578125 L 17.046875 -17.453125 L 17.046875 -33.03125 L 13.703125 -33.96875 L 10.34375 -33.03125 Z M 0.46875 -38.203125 C 1.769531 -38.203125 2.710938 -38.3125 3.296875 -38.53125 L 3.296875 -39.484375 C 3.472656 -39.484375 3.875 -39.660156 4.5 -40.015625 C 4.851562 -40.460938 5.566406 -40.6875 6.640625 -40.6875 L 6.84375 -40.6875 C 7.738281 -40.6875 8.457031 -40.484375 9 -40.078125 C 9.488281 -39.679688 9.867188 -39.484375 10.140625 -39.484375 C 10.765625 -39.484375 11.953125 -39.992188 13.703125 -41.015625 C 15.441406 -39.992188 16.601562 -39.484375 17.1875 -39.484375 C 17.457031 -39.484375 17.882812 -39.679688 18.46875 -40.078125 C 19 -40.484375 19.691406 -40.6875 20.546875 -40.6875 L 20.75 -40.6875 C 21.820312 -40.6875 22.535156 -40.460938 22.890625 -40.015625 C 23.335938 -39.660156 23.742188 -39.484375 24.109375 -39.484375 L 24.109375 -38.53125 C 24.679688 -38.3125 25.597656 -38.203125 26.859375 -38.203125 L 24.234375 -35.984375 L 24.234375 -17.796875 C 24.410156 -17.742188 24.65625 -17.65625 24.96875 -17.53125 C 25.238281 -17.34375 25.488281 -17.207031 25.71875 -17.125 C 25.9375 -17.03125 26.160156 -16.984375 26.390625 -16.984375 C 26.703125 -16.984375 27.015625 -17.117188 27.328125 -17.390625 C 26.972656 -16.710938 26.457031 -16.0625 25.78125 -15.4375 C 25.113281 -14.8125 24.597656 -14.1875 24.234375 -13.5625 L 24.234375 -11.015625 C 23.742188 -11.015625 23.296875 -10.832031 22.890625 -10.46875 C 22.578125 -10.070312 21.863281 -9.875 20.75 -9.875 L 20.546875 -9.875 C 19.421875 -9.875 18.703125 -10.070312 18.390625 -10.46875 C 17.941406 -10.832031 17.585938 -11.015625 17.328125 -11.015625 L 17.1875 -11.015625 C 16.5625 -11.015625 15.398438 -10.519531 13.703125 -9.53125 C 12.046875 -10.46875 10.925781 -10.960938 10.34375 -11.015625 L 10.34375 0.671875 L 13.03125 2.890625 C 11.726562 2.890625 10.785156 3 10.203125 3.21875 L 10.203125 4.15625 C 10.023438 4.15625 9.625 4.335938 9 4.703125 C 8.632812 5.148438 7.914062 5.375 6.84375 5.375 L 6.640625 5.375 C 5.566406 5.375 4.851562 5.148438 4.5 4.703125 C 3.875 4.335938 3.472656 4.15625 3.296875 4.15625 L 3.296875 3.21875 C 2.710938 3 1.769531 2.890625 0.46875 2.890625 L 3.15625 0.671875 L 3.15625 -13.5625 C 2.800781 -14.1875 2.285156 -14.8125 1.609375 -15.4375 C 0.890625 -16.0625 0.351562 -16.710938 0 -17.390625 C 0.351562 -17.117188 0.6875 -16.984375 1 -16.984375 C 1.226562 -16.984375 1.453125 -17.03125 1.671875 -17.125 C 1.898438 -17.207031 2.171875 -17.34375 2.484375 -17.53125 C 2.753906 -17.65625 2.976562 -17.742188 3.15625 -17.796875 L 3.15625 -35.984375 Z M 0.46875 -38.203125 "/></g></g></g><g fill="#c24914" fill-opacity="1"><g transform="translate(110.483145, 57.67164)"><g><path d="M 0.46875 2.890625 L 3.15625 0.671875 L 3.15625 -13.5625 C 2.800781 -14.1875 2.285156 -14.8125 1.609375 -15.4375 C 0.890625 -16.0625 0.351562 -16.710938 0 -17.390625 C 0.351562 -17.117188 0.6875 -16.984375 1 -16.984375 C 1.226562 -16.984375 1.453125 -17.03125 1.671875 -17.125 C 1.898438 -17.207031 2.171875 -17.34375 2.484375 -17.53125 C 2.753906 -17.65625 2.976562 -17.742188 3.15625 -17.796875 L 3.15625 -35.984375 L 0.46875 -38.203125 C 1.769531 -38.203125 2.710938 -38.3125 3.296875 -38.53125 L 3.296875 -39.484375 C 3.472656 -39.484375 3.875 -39.660156 4.5 -40.015625 C 4.851562 -40.460938 5.613281 -40.6875 6.78125 -40.6875 C 7.71875 -40.6875 8.476562 -40.507812 9.0625 -40.15625 C 9.601562 -39.75 9.984375 -39.546875 10.203125 -39.546875 C 10.828125 -39.546875 11.992188 -40.035156 13.703125 -41.015625 C 15.398438 -39.992188 16.609375 -39.484375 17.328125 -39.484375 C 17.585938 -39.484375 18.007812 -39.679688 18.59375 -40.078125 C 19.132812 -40.484375 19.851562 -40.6875 20.75 -40.6875 C 21.6875 -40.6875 22.359375 -40.550781 22.765625 -40.28125 C 23.117188 -40.007812 23.296875 -39.742188 23.296875 -39.484375 C 23.296875 -39.171875 23.585938 -38.878906 24.171875 -38.609375 C 24.703125 -38.335938 25.640625 -38.203125 26.984375 -38.203125 L 24.234375 -35.984375 L 24.234375 -29 L 26.984375 -26.859375 C 25.640625 -26.859375 24.703125 -26.722656 24.171875 -26.453125 C 23.585938 -26.179688 23.296875 -25.890625 23.296875 -25.578125 C 23.296875 -25.265625 23.117188 -24.972656 22.765625 -24.703125 C 22.359375 -24.441406 21.6875 -24.3125 20.75 -24.3125 C 19.8125 -24.3125 19.160156 -24.441406 18.796875 -24.703125 C 18.390625 -24.972656 18.1875 -25.265625 18.1875 -25.578125 C 18.1875 -25.890625 17.921875 -26.179688 17.390625 -26.453125 C 16.804688 -26.722656 15.84375 -26.859375 14.5 -26.859375 L 17.1875 -29 L 17.1875 -33.03125 L 13.703125 -33.96875 L 10.34375 -33.03125 L 10.34375 -21.21875 L 12.890625 -21.21875 L 15.109375 -23.90625 C 15.109375 -22.695312 15.21875 -21.753906 15.4375 -21.078125 L 16.453125 -21.078125 C 16.398438 -20.859375 16.554688 -20.457031 16.921875 -19.875 C 17.367188 -19.601562 17.59375 -18.910156 17.59375 -17.796875 L 17.59375 -17.53125 C 17.59375 -16.363281 17.367188 -15.644531 16.921875 -15.375 C 16.554688 -14.925781 16.398438 -14.523438 16.453125 -14.171875 L 15.4375 -14.171875 C 15.21875 -13.585938 15.109375 -12.664062 15.109375 -11.40625 L 12.890625 -14.03125 L 10.34375 -14.03125 L 10.34375 -2.21875 L 13.703125 -1.34375 L 17.1875 -2.28125 L 17.1875 -6.25 L 14.5 -8.453125 C 15.84375 -8.453125 16.804688 -8.585938 17.390625 -8.859375 C 17.921875 -9.128906 18.1875 -9.421875 18.1875 -9.734375 C 18.1875 -10.003906 18.390625 -10.273438 18.796875 -10.546875 C 19.160156 -10.804688 19.8125 -10.9375 20.75 -10.9375 C 21.6875 -10.9375 22.359375 -10.804688 22.765625 -10.546875 C 23.117188 -10.273438 23.296875 -10.003906 23.296875 -9.734375 C 23.296875 -9.421875 23.585938 -9.128906 24.171875 -8.859375 C 24.703125 -8.585938 25.640625 -8.453125 26.984375 -8.453125 L 24.234375 -6.25 L 24.234375 0.671875 L 26.984375 2.890625 C 25.640625 2.890625 24.703125 3.023438 24.171875 3.296875 C 23.585938 3.554688 23.296875 3.820312 23.296875 4.09375 C 23.296875 4.40625 23.117188 4.695312 22.765625 4.96875 C 22.359375 5.238281 21.6875 5.375 20.75 5.375 C 19.851562 5.375 19.132812 5.171875 18.59375 4.765625 C 18.007812 4.359375 17.585938 4.15625 17.328125 4.15625 C 16.785156 4.15625 15.578125 4.671875 13.703125 5.703125 C 11.992188 4.722656 10.828125 4.234375 10.203125 4.234375 C 9.710938 4.234375 9.3125 4.390625 9 4.703125 C 8.726562 5.148438 8.007812 5.375 6.84375 5.375 L 6.640625 5.375 C 5.484375 5.375 4.769531 5.148438 4.5 4.703125 C 4.09375 4.390625 3.753906 4.234375 3.484375 4.234375 L 3.296875 4.234375 L 3.296875 3.296875 C 2.753906 3.023438 1.8125 2.890625 0.46875 2.890625 Z M 0.46875 2.890625 "/></g></g></g><g fill="#c24914" fill-opacity="1"><g transform="translate(140.765006, 57.67164)"><g><path d="M 10.34375 -21.28125 L 10.46875 -21.21875 L 17.1875 -24.578125 L 17.1875 -33.03125 L 13.703125 -33.96875 L 10.34375 -33.03125 Z M 0.46875 -38.203125 C 1.675781 -38.203125 2.617188 -38.3125 3.296875 -38.53125 L 3.296875 -39.484375 C 3.472656 -39.484375 3.875 -39.660156 4.5 -40.015625 C 4.632812 -40.191406 4.859375 -40.347656 5.171875 -40.484375 C 5.441406 -40.617188 5.929688 -40.6875 6.640625 -40.6875 L 6.84375 -40.6875 C 7.738281 -40.6875 8.457031 -40.484375 9 -40.078125 C 9.488281 -39.679688 9.867188 -39.484375 10.140625 -39.484375 C 10.765625 -39.484375 11.953125 -39.992188 13.703125 -41.015625 C 15.398438 -39.992188 16.609375 -39.484375 17.328125 -39.484375 C 17.585938 -39.484375 18.007812 -39.679688 18.59375 -40.078125 C 19.132812 -40.484375 19.851562 -40.6875 20.75 -40.6875 C 21.6875 -40.6875 22.359375 -40.550781 22.765625 -40.28125 C 23.117188 -40.007812 23.296875 -39.742188 23.296875 -39.484375 C 23.296875 -39.171875 23.585938 -38.878906 24.171875 -38.609375 C 24.703125 -38.335938 25.640625 -38.203125 26.984375 -38.203125 L 24.234375 -35.984375 L 24.234375 -22.09375 L 17.71875 -18.796875 L 24.234375 -15.578125 L 24.234375 0.671875 L 26.984375 2.890625 L 26.859375 2.890625 C 25.785156 2.890625 24.910156 3 24.234375 3.21875 L 24.234375 4.234375 L 24.109375 4.234375 C 23.609375 4.234375 23.203125 4.390625 22.890625 4.703125 C 22.617188 5.148438 21.90625 5.375 20.75 5.375 L 20.484375 5.375 C 19.359375 5.375 18.660156 5.148438 18.390625 4.703125 C 17.992188 4.390625 17.679688 4.234375 17.453125 4.234375 L 17.328125 4.234375 L 17.328125 3.296875 C 16.785156 3.023438 15.84375 2.890625 14.5 2.890625 L 17.1875 0.671875 L 17.1875 -11.8125 L 10.34375 -15.109375 L 10.34375 0.671875 L 12.953125 2.890625 C 11.878906 2.890625 11.007812 3 10.34375 3.21875 L 10.34375 4.234375 L 10.203125 4.234375 C 9.710938 4.234375 9.3125 4.390625 9 4.703125 C 8.726562 5.148438 8.007812 5.375 6.84375 5.375 L 6.640625 5.375 C 5.484375 5.375 4.769531 5.148438 4.5 4.703125 C 4.1875 4.390625 3.785156 4.234375 3.296875 4.234375 L 3.296875 3.296875 C 2.753906 3.023438 1.8125 2.890625 0.46875 2.890625 L 3.15625 0.671875 L 3.15625 -13.5625 C 2.84375 -14.101562 2.570312 -14.484375 2.34375 -14.703125 L 0.8125 -16.25 C 0.582031 -16.46875 0.3125 -16.847656 0 -17.390625 C 0.351562 -17.117188 0.6875 -16.984375 1 -16.984375 C 1.226562 -16.984375 1.453125 -17.03125 1.671875 -17.125 C 1.898438 -17.207031 2.171875 -17.34375 2.484375 -17.53125 C 2.753906 -17.65625 2.976562 -17.742188 3.15625 -17.796875 L 3.15625 -35.984375 Z M 0.46875 -38.203125 "/></g></g></g><g fill="#c24914" fill-opacity="1"><g transform="translate(171.046867, 57.67164)"><g><path d="M 3.15625 0.671875 L 3.15625 -13.5625 C 2.800781 -14.1875 2.285156 -14.8125 1.609375 -15.4375 C 0.890625 -16.0625 0.351562 -16.710938 0 -17.390625 C 0.351562 -17.117188 0.6875 -16.984375 1 -16.984375 C 1.226562 -16.984375 1.453125 -17.03125 1.671875 -17.125 C 1.898438 -17.207031 2.171875 -17.34375 2.484375 -17.53125 C 2.753906 -17.65625 2.976562 -17.742188 3.15625 -17.796875 L 3.15625 -35.984375 L 0.46875 -38.203125 C 1.769531 -38.203125 2.710938 -38.3125 3.296875 -38.53125 L 3.296875 -39.484375 C 3.472656 -39.484375 3.875 -39.660156 4.5 -40.015625 C 4.851562 -40.460938 5.566406 -40.6875 6.640625 -40.6875 L 6.84375 -40.6875 C 7.914062 -40.6875 8.632812 -40.460938 9 -40.015625 C 9.625 -39.660156 10.023438 -39.484375 10.203125 -39.484375 L 10.203125 -38.53125 C 11.191406 -38.3125 12.109375 -38.203125 12.953125 -38.203125 L 10.34375 -35.984375 L 10.34375 -17.796875 C 10.519531 -17.742188 10.765625 -17.65625 11.078125 -17.53125 C 11.347656 -17.34375 11.59375 -17.207031 11.8125 -17.125 C 12.039062 -17.03125 12.265625 -16.984375 12.484375 -16.984375 C 12.753906 -16.984375 13.066406 -17.117188 13.421875 -17.390625 C 13.066406 -16.710938 12.554688 -16.0625 11.890625 -15.4375 C 11.210938 -14.8125 10.695312 -14.1875 10.34375 -13.5625 L 10.34375 0.671875 L 12.953125 2.890625 C 11.660156 2.890625 10.742188 3.023438 10.203125 3.296875 L 10.203125 4.234375 L 10 4.234375 C 9.726562 4.234375 9.394531 4.390625 9 4.703125 C 8.726562 5.148438 8.007812 5.375 6.84375 5.375 L 6.640625 5.375 C 5.484375 5.375 4.769531 5.148438 4.5 4.703125 C 4.1875 4.390625 3.785156 4.234375 3.296875 4.234375 L 3.296875 3.296875 C 2.753906 3.023438 1.8125 2.890625 0.46875 2.890625 Z M 3.15625 0.671875 "/></g></g></g><g fill="#c24914" fill-opacity="1"><g transform="translate(186.489942, 57.67164)"><g><path d="M 3.09375 -35.984375 L 0.46875 -38.203125 C 1.71875 -38.203125 2.632812 -38.3125 3.21875 -38.53125 L 3.21875 -39.484375 C 3.445312 -39.484375 3.875 -39.660156 4.5 -40.015625 C 4.769531 -40.460938 5.460938 -40.6875 6.578125 -40.6875 L 6.84375 -40.6875 C 7.875 -40.6875 8.570312 -40.460938 8.9375 -40.015625 C 9.5625 -39.660156 9.960938 -39.484375 10.140625 -39.484375 L 10.140625 -38.53125 C 10.804688 -38.3125 11.742188 -38.203125 12.953125 -38.203125 L 10.265625 -35.984375 L 10.265625 -2.21875 L 13.625 -1.34375 L 16.984375 -2.21875 L 16.984375 -35.984375 L 14.375 -38.203125 C 15.625 -38.203125 16.539062 -38.3125 17.125 -38.53125 L 17.125 -39.484375 C 17.476562 -39.484375 17.878906 -39.660156 18.328125 -40.015625 C 18.679688 -40.460938 19.398438 -40.6875 20.484375 -40.6875 L 20.75 -40.6875 C 21.78125 -40.6875 22.472656 -40.460938 22.828125 -40.015625 C 23.453125 -39.660156 23.851562 -39.484375 24.03125 -39.484375 L 24.03125 -38.53125 C 24.707031 -38.3125 25.648438 -38.203125 26.859375 -38.203125 L 24.171875 -35.984375 L 24.171875 -17.796875 C 24.347656 -17.742188 24.59375 -17.65625 24.90625 -17.53125 C 25.175781 -17.34375 25.421875 -17.207031 25.640625 -17.125 C 25.867188 -17.03125 26.09375 -16.984375 26.3125 -16.984375 C 26.675781 -16.984375 27.015625 -17.117188 27.328125 -17.390625 C 27.015625 -16.847656 26.742188 -16.46875 26.515625 -16.25 L 24.96875 -14.703125 C 24.75 -14.484375 24.484375 -14.101562 24.171875 -13.5625 L 24.171875 0.671875 L 26.859375 2.890625 C 25.515625 2.890625 24.570312 3.023438 24.03125 3.296875 L 24.03125 4.234375 C 23.539062 4.234375 23.140625 4.390625 22.828125 4.703125 C 22.554688 5.148438 21.863281 5.375 20.75 5.375 L 20.484375 5.375 C 19.316406 5.375 18.597656 5.148438 18.328125 4.703125 C 18.015625 4.390625 17.613281 4.234375 17.125 4.234375 C 16.582031 4.234375 15.414062 4.722656 13.625 5.703125 C 11.882812 4.722656 10.722656 4.234375 10.140625 4.234375 C 9.648438 4.234375 9.25 4.390625 8.9375 4.703125 C 8.664062 5.148438 7.96875 5.375 6.84375 5.375 L 6.578125 5.375 C 5.367188 5.375 4.675781 5.148438 4.5 4.703125 C 4.1875 4.390625 3.757812 4.234375 3.21875 4.234375 L 3.21875 3.296875 C 2.769531 3.023438 1.851562 2.890625 0.46875 2.890625 L 3.09375 0.671875 L 3.09375 -13.5625 C 2.726562 -14.1875 2.210938 -14.8125 1.546875 -15.4375 C 0.867188 -16.0625 0.351562 -16.710938 0 -17.390625 C 0.351562 -17.117188 0.6875 -16.984375 1 -16.984375 C 1.226562 -16.984375 1.453125 -17.03125 1.671875 -17.125 C 1.898438 -17.207031 2.148438 -17.34375 2.421875 -17.53125 C 2.679688 -17.65625 2.90625 -17.742188 3.09375 -17.796875 Z M 3.09375 -35.984375 "/></g></g></g><g fill="#c24914" fill-opacity="1"><g transform="translate(216.973236, 57.67164)"><g><path d="M 40.21875 -16.984375 C 40.53125 -16.984375 40.863281 -17.117188 41.21875 -17.390625 C 40.863281 -16.710938 40.351562 -16.0625 39.6875 -15.4375 C 38.96875 -14.8125 38.425781 -14.1875 38.0625 -13.5625 L 38.0625 0.671875 L 40.75 2.890625 C 39.40625 2.890625 38.46875 3.023438 37.9375 3.296875 L 37.9375 4.234375 C 37.445312 4.234375 37.039062 4.390625 36.71875 4.703125 C 36.457031 5.148438 35.765625 5.375 34.640625 5.375 L 34.375 5.375 C 33.257812 5.375 32.566406 5.148438 32.296875 4.703125 C 31.984375 4.390625 31.582031 4.234375 31.09375 4.234375 L 31.09375 3.296875 C 30.550781 3.023438 29.609375 2.890625 28.265625 2.890625 L 30.953125 0.671875 L 30.953125 -33.03125 L 27.59375 -33.96875 L 24.234375 -33.03125 L 24.234375 0.671875 L 26.859375 2.890625 C 25.597656 2.890625 24.679688 3.023438 24.109375 3.296875 L 24.109375 4.234375 C 24.054688 4.234375 23.851562 4.320312 23.5 4.5 C 23.09375 4.71875 22.625 4.921875 22.09375 5.109375 C 21.507812 5.285156 21.015625 5.375 20.609375 5.375 C 20.253906 5.375 19.804688 5.285156 19.265625 5.109375 C 18.734375 4.921875 18.265625 4.71875 17.859375 4.5 C 17.453125 4.320312 17.226562 4.234375 17.1875 4.234375 L 17.1875 3.296875 C 16.5625 3.023438 15.625 2.890625 14.375 2.890625 L 17.046875 0.671875 L 17.046875 -33.03125 L 13.703125 -33.96875 L 10.34375 -33.03125 L 10.34375 0.671875 L 12.953125 2.890625 C 11.660156 2.890625 10.742188 3.023438 10.203125 3.296875 L 10.203125 4.234375 C 9.710938 4.234375 9.3125 4.390625 9 4.703125 C 8.726562 5.148438 8.007812 5.375 6.84375 5.375 L 6.640625 5.375 C 5.484375 5.375 4.769531 5.148438 4.5 4.703125 C 4.1875 4.390625 3.785156 4.234375 3.296875 4.234375 L 3.296875 3.296875 C 2.753906 3.023438 1.8125 2.890625 0.46875 2.890625 L 3.15625 0.671875 L 3.15625 -13.5625 C 2.84375 -14.101562 2.570312 -14.484375 2.34375 -14.703125 L 0.8125 -16.25 C 0.582031 -16.46875 0.3125 -16.847656 0 -17.390625 C 0.351562 -17.117188 0.6875 -16.984375 1 -16.984375 C 1.226562 -16.984375 1.453125 -17.03125 1.671875 -17.125 C 1.898438 -17.207031 2.171875 -17.34375 2.484375 -17.53125 C 2.753906 -17.65625 2.976562 -17.742188 3.15625 -17.796875 L 3.15625 -35.984375 L 0.46875 -38.203125 C 1.675781 -38.203125 2.617188 -38.3125 3.296875 -38.53125 L 3.296875 -39.484375 C 3.472656 -39.484375 3.875 -39.660156 4.5 -40.015625 C 4.851562 -40.460938 5.566406 -40.6875 6.640625 -40.6875 L 6.84375 -40.6875 C 7.914062 -40.6875 8.632812 -40.460938 9 -40.015625 C 9.445312 -39.660156 9.847656 -39.484375 10.203125 -39.484375 C 10.472656 -39.484375 10.898438 -39.59375 11.484375 -39.8125 C 11.972656 -40.039062 12.710938 -40.441406 13.703125 -41.015625 C 15.359375 -40.078125 16.539062 -39.609375 17.25 -39.609375 C 17.5625 -39.609375 18.007812 -39.789062 18.59375 -40.15625 C 19.175781 -40.507812 19.847656 -40.6875 20.609375 -40.6875 C 21.367188 -40.6875 22.039062 -40.507812 22.625 -40.15625 C 23.207031 -39.789062 23.675781 -39.609375 24.03125 -39.609375 C 24.75 -39.609375 25.9375 -40.078125 27.59375 -41.015625 C 29.289062 -39.992188 30.457031 -39.484375 31.09375 -39.484375 C 31.269531 -39.484375 31.671875 -39.660156 32.296875 -40.015625 C 32.648438 -40.460938 33.34375 -40.6875 34.375 -40.6875 L 34.640625 -40.6875 C 35.671875 -40.6875 36.363281 -40.460938 36.71875 -40.015625 C 37.351562 -39.660156 37.757812 -39.484375 37.9375 -39.484375 L 37.9375 -38.53125 C 38.601562 -38.3125 39.539062 -38.203125 40.75 -38.203125 L 38.0625 -35.984375 L 38.0625 -17.796875 C 38.25 -17.742188 38.5 -17.65625 38.8125 -17.53125 C 39.070312 -17.34375 39.316406 -17.207031 39.546875 -17.125 C 39.765625 -17.03125 39.988281 -16.984375 40.21875 -16.984375 Z M 40.21875 -16.984375 "/></g></g></g></g></g><g transform="matrix(1, 0, 0, 1, 75, 214)"><g clip-path="url(#dbfa1d2ddc)"><g clip-path="url(#e04407d7fa)"><g fill="#c24914" fill-opacity="1"><g transform="translate(0.291801, 13.215925)"><g><path d="M 5.046875 -1.296875 L 4.953125 -1.296875 C 4.503906 -1.296875 4.097656 -1.191406 3.734375 -0.984375 C 3.335938 -0.765625 3.082031 -0.441406 2.96875 -0.015625 C 2.59375 -0.492188 2.179688 -0.734375 1.734375 -0.734375 C 1.492188 -0.734375 1.28125 -0.664062 1.09375 -0.53125 C 0.882812 -0.382812 0.78125 -0.203125 0.78125 0.015625 C 0.78125 0.0664062 0.804688 0.164062 0.859375 0.3125 C 0.910156 0.457031 0.9375 0.546875 0.9375 0.578125 C 0.9375 0.648438 0.914062 0.6875 0.875 0.6875 C 0.769531 0.6875 0.664062 0.550781 0.5625 0.28125 C 0.46875 0.0507812 0.421875 -0.128906 0.421875 -0.265625 C 0.421875 -0.710938 0.597656 -1.078125 0.953125 -1.359375 C 1.273438 -1.609375 1.664062 -1.742188 2.125 -1.765625 L 2.125 -7.875 C 2.125 -8.1875 2.039062 -8.441406 1.875 -8.640625 C 1.707031 -8.835938 1.46875 -8.9375 1.15625 -8.9375 C 0.9375 -8.9375 0.738281 -8.859375 0.5625 -8.703125 C 0.382812 -8.554688 0.296875 -8.378906 0.296875 -8.171875 C 0.296875 -8.035156 0.359375 -7.890625 0.484375 -7.734375 C 0.617188 -7.585938 0.6875 -7.519531 0.6875 -7.53125 C 0.6875 -7.476562 0.65625 -7.453125 0.59375 -7.453125 C 0.425781 -7.453125 0.285156 -7.519531 0.171875 -7.65625 C 0.0546875 -7.800781 0 -7.96875 0 -8.15625 C 0 -8.570312 0.207031 -8.894531 0.625 -9.125 C 0.957031 -9.3125 1.347656 -9.40625 1.796875 -9.40625 C 2.117188 -9.40625 2.453125 -9.304688 2.796875 -9.109375 C 3.078125 -8.910156 3.363281 -8.710938 3.65625 -8.515625 C 4.019531 -8.316406 4.484375 -8.222656 5.046875 -8.234375 L 5.046875 -8 L 4.984375 -8 C 4.609375 -8 4.320312 -7.832031 4.125 -7.5 C 3.945312 -7.207031 3.859375 -6.859375 3.859375 -6.453125 L 3.859375 -5.34375 L 4.4375 -5.34375 L 4.4375 -4.65625 L 3.859375 -4.65625 L 3.859375 -3.03125 C 3.859375 -2.09375 4.253906 -1.59375 5.046875 -1.53125 Z M 1.421875 -1.859375 C 1.335938 -1.828125 1.242188 -1.785156 1.140625 -1.734375 L 1.140625 -4.625 C 1.085938 -4.632812 1.019531 -4.640625 0.9375 -4.640625 C 0.707031 -4.640625 0.566406 -4.554688 0.515625 -4.390625 C 0.492188 -4.328125 0.484375 -4.140625 0.484375 -3.828125 L 0.1875 -3.828125 L 0.1875 -6.09375 L 0.484375 -6.09375 C 0.484375 -5.832031 0.5 -5.660156 0.53125 -5.578125 C 0.59375 -5.460938 0.742188 -5.40625 0.984375 -5.40625 L 1.140625 -5.40625 L 1.140625 -8.734375 C 1.253906 -8.734375 1.347656 -8.722656 1.421875 -8.703125 Z M 1.421875 -1.859375 "/></g></g></g></g><g fill="#c24914" fill-opacity="1"><g transform="translate(9.093037, 13.215925)"><g><path d="M 9.3125 -1.15625 C 8.800781 -1.101562 8.273438 -0.691406 7.734375 0.078125 C 7.378906 -0.0234375 7.054688 -0.269531 6.765625 -0.65625 C 6.492188 -1 6.242188 -1.171875 6.015625 -1.171875 L 6.015625 -1.40625 C 6.367188 -1.570312 6.546875 -2.019531 6.546875 -2.75 L 6.546875 -7.484375 L 5.515625 -2.9375 C 5.453125 -2.644531 5.421875 -2.390625 5.421875 -2.171875 C 5.421875 -1.710938 5.566406 -1.457031 5.859375 -1.40625 L 5.859375 -1.171875 C 5.242188 -1.128906 4.804688 -0.742188 4.546875 -0.015625 C 4.492188 -0.265625 4.332031 -0.515625 4.0625 -0.765625 C 3.789062 -1.023438 3.535156 -1.160156 3.296875 -1.171875 L 3.296875 -1.40625 C 3.503906 -1.550781 3.609375 -1.789062 3.609375 -2.125 C 3.609375 -2.34375 3.566406 -2.601562 3.484375 -2.90625 L 2.1875 -7.484375 L 2.1875 -2.734375 C 2.1875 -2.429688 2.265625 -2.144531 2.421875 -1.875 C 2.597656 -1.5625 2.828125 -1.40625 3.109375 -1.40625 L 3.109375 -1.171875 C 2.492188 -1.046875 2.097656 -0.648438 1.921875 0.015625 C 1.722656 -0.359375 1.421875 -0.546875 1.015625 -0.546875 C 0.859375 -0.546875 0.710938 -0.503906 0.578125 -0.421875 C 0.441406 -0.347656 0.375 -0.238281 0.375 -0.09375 C 0.375 -0.0078125 0.421875 0.0859375 0.515625 0.203125 C 0.609375 0.328125 0.65625 0.394531 0.65625 0.40625 C 0.65625 0.46875 0.613281 0.5 0.53125 0.5 C 0.382812 0.5 0.257812 0.390625 0.15625 0.171875 C 0.0625 -0.00390625 0.015625 -0.175781 0.015625 -0.34375 C 0.015625 -0.800781 0.21875 -1.160156 0.625 -1.421875 C 0.945312 -1.640625 1.351562 -1.765625 1.84375 -1.796875 L 1.84375 -4.40625 C 1.8125 -4.414062 1.765625 -4.421875 1.703125 -4.421875 C 1.441406 -4.421875 1.269531 -4.347656 1.1875 -4.203125 C 1.144531 -4.097656 1.125 -3.898438 1.125 -3.609375 L 0.84375 -3.609375 L 0.84375 -5.84375 L 1.125 -5.84375 C 1.125 -5.539062 1.164062 -5.351562 1.25 -5.28125 C 1.332031 -5.207031 1.53125 -5.171875 1.84375 -5.171875 L 1.84375 -7.59375 C 1.84375 -8.394531 1.601562 -8.796875 1.125 -8.796875 C 0.914062 -8.796875 0.726562 -8.734375 0.5625 -8.609375 C 0.382812 -8.460938 0.296875 -8.296875 0.296875 -8.109375 C 0.296875 -7.984375 0.359375 -7.851562 0.484375 -7.71875 C 0.609375 -7.582031 0.671875 -7.515625 0.671875 -7.515625 C 0.671875 -7.453125 0.632812 -7.421875 0.5625 -7.421875 C 0.40625 -7.421875 0.269531 -7.488281 0.15625 -7.625 C 0.0507812 -7.769531 0 -7.9375 0 -8.125 C 0 -8.53125 0.191406 -8.847656 0.578125 -9.078125 C 0.898438 -9.265625 1.28125 -9.359375 1.71875 -9.359375 C 2.050781 -9.359375 2.382812 -9.253906 2.71875 -9.046875 C 2.84375 -8.960938 3.125 -8.738281 3.5625 -8.375 C 3.9375 -8.15625 4.410156 -8.046875 4.984375 -8.046875 L 4.984375 -7.8125 C 4.484375 -7.820312 4.234375 -7.566406 4.234375 -7.046875 C 4.234375 -6.878906 4.257812 -6.691406 4.3125 -6.484375 L 5.15625 -3.0625 L 5.984375 -6.59375 C 6.015625 -6.726562 6.03125 -6.84375 6.03125 -6.9375 C 6.03125 -7.457031 5.765625 -7.75 5.234375 -7.8125 L 5.234375 -8.046875 C 5.660156 -8.035156 6.0625 -8.15625 6.4375 -8.40625 C 6.820312 -8.664062 7.082031 -8.992188 7.21875 -9.390625 C 7.53125 -8.578125 8.226562 -8.128906 9.3125 -8.046875 L 9.3125 -7.8125 C 8.675781 -7.78125 8.359375 -7.394531 8.359375 -6.65625 L 8.359375 -2.75 C 8.359375 -1.957031 8.675781 -1.507812 9.3125 -1.40625 Z M 9.3125 -1.15625 "/></g></g></g><g fill="#c24914" fill-opacity="1"><g transform="translate(22.279917, 13.215925)"><g><path d="M 7.15625 -4.953125 L 7.140625 -4.71875 C 6.703125 -4.71875 6.335938 -4.546875 6.046875 -4.203125 C 5.765625 -3.890625 5.59375 -3.503906 5.53125 -3.046875 C 5.457031 -3.546875 5.242188 -3.925781 4.890625 -4.1875 C 4.535156 -4.457031 4.097656 -4.59375 3.578125 -4.59375 L 3.359375 -4.59375 L 3.359375 -2.9375 C 3.359375 -2.550781 3.421875 -2.257812 3.546875 -2.0625 C 3.703125 -1.832031 3.96875 -1.707031 4.34375 -1.6875 L 4.34375 -1.4375 C 3.988281 -1.40625 3.628906 -1.238281 3.265625 -0.9375 C 2.898438 -0.644531 2.6875 -0.328125 2.625 0.015625 C 2.289062 -0.472656 1.882812 -0.71875 1.40625 -0.71875 C 1.175781 -0.71875 0.976562 -0.648438 0.8125 -0.515625 C 0.65625 -0.378906 0.578125 -0.203125 0.578125 0.015625 C 0.578125 0.222656 0.664062 0.363281 0.84375 0.4375 C 0.925781 0.476562 0.96875 0.515625 0.96875 0.546875 C 0.96875 0.597656 0.925781 0.625 0.84375 0.625 C 0.632812 0.625 0.46875 0.515625 0.34375 0.296875 C 0.238281 0.109375 0.1875 -0.09375 0.1875 -0.3125 C 0.1875 -1.0625 0.6875 -1.519531 1.6875 -1.6875 L 1.6875 -4.59375 C 1.425781 -4.570312 1.265625 -4.5 1.203125 -4.375 C 1.171875 -4.289062 1.15625 -4.109375 1.15625 -3.828125 L 0.796875 -3.828125 L 0.796875 -5.953125 L 1.140625 -5.953125 C 1.128906 -5.847656 1.125 -5.753906 1.125 -5.671875 C 1.125 -5.453125 1.25 -5.34375 1.5 -5.34375 L 1.6875 -5.34375 L 1.6875 -5.953125 C 1.6875 -6.285156 1.628906 -6.546875 1.515625 -6.734375 C 1.398438 -6.921875 1.1875 -7.046875 0.875 -7.109375 C 1.351562 -7.242188 1.695312 -7.410156 1.90625 -7.609375 C 2.125 -7.816406 2.316406 -8.148438 2.484375 -8.609375 C 2.609375 -8.242188 2.832031 -7.914062 3.15625 -7.625 C 3.519531 -7.289062 3.878906 -7.125 4.234375 -7.125 C 3.648438 -6.9375 3.359375 -6.546875 3.359375 -5.953125 L 3.359375 -4.921875 C 3.410156 -4.910156 3.484375 -4.90625 3.578125 -4.90625 C 4.003906 -4.90625 4.300781 -5.019531 4.46875 -5.25 C 4.601562 -5.445312 4.671875 -5.765625 4.671875 -6.203125 C 4.671875 -6.316406 4.671875 -6.410156 4.671875 -6.484375 L 4.671875 -6.796875 C 4.671875 -7.441406 4.472656 -7.972656 4.078125 -8.390625 C 3.679688 -8.804688 3.160156 -9.015625 2.515625 -9.015625 C 1.941406 -9.015625 1.445312 -8.875 1.03125 -8.59375 C 0.550781 -8.28125 0.3125 -7.851562 0.3125 -7.3125 C 0.3125 -7.144531 0.363281 -6.945312 0.46875 -6.71875 C 0.570312 -6.488281 0.625 -6.363281 0.625 -6.34375 L 0.578125 -6.296875 C 0.398438 -6.335938 0.25 -6.476562 0.125 -6.71875 C 0.0195312 -6.9375 -0.03125 -7.148438 -0.03125 -7.359375 C -0.03125 -8.015625 0.289062 -8.53125 0.9375 -8.90625 C 1.46875 -9.207031 2.085938 -9.359375 2.796875 -9.359375 C 3.503906 -9.359375 4.1875 -9.171875 4.84375 -8.796875 C 5.3125 -8.523438 5.597656 -8.375 5.703125 -8.34375 C 6.054688 -8.207031 6.519531 -8.140625 7.09375 -8.140625 L 7.140625 -8.140625 L 7.140625 -7.90625 C 6.742188 -7.882812 6.488281 -7.691406 6.375 -7.328125 C 6.320312 -7.160156 6.296875 -6.8125 6.296875 -6.28125 C 6.296875 -5.882812 6.335938 -5.59375 6.421875 -5.40625 C 6.554688 -5.132812 6.800781 -4.984375 7.15625 -4.953125 Z M 7.15625 -4.953125 "/></g></g></g><g fill="#c24914" fill-opacity="1"><g transform="translate(33.038039, 13.215925)"><g><path d="M 6.765625 -7.953125 C 6.441406 -7.921875 6.15625 -7.726562 5.90625 -7.375 C 5.695312 -7.082031 5.554688 -6.75 5.484375 -6.375 C 5.410156 -6.851562 5.289062 -7.203125 5.125 -7.421875 C 4.925781 -7.691406 4.609375 -7.867188 4.171875 -7.953125 L 4.171875 -8.1875 L 4.21875 -8.1875 C 4.4375 -8.1875 4.632812 -8.238281 4.8125 -8.34375 C 5.039062 -8.457031 5.15625 -8.613281 5.15625 -8.8125 C 5.15625 -9.007812 5.035156 -9.109375 4.796875 -9.109375 C 4.222656 -9.109375 3.9375 -8.71875 3.9375 -7.9375 L 3.9375 -5.359375 C 4.257812 -5.367188 4.453125 -5.40625 4.515625 -5.46875 C 4.578125 -5.53125 4.609375 -5.710938 4.609375 -6.015625 L 4.953125 -6.015625 L 4.953125 -3.796875 L 4.609375 -3.796875 C 4.609375 -4.066406 4.585938 -4.253906 4.546875 -4.359375 C 4.460938 -4.503906 4.296875 -4.578125 4.046875 -4.578125 L 3.9375 -4.578125 L 3.9375 -2.8125 L 3.65625 -2.8125 L 3.65625 -7.828125 C 3.65625 -8.929688 4.078125 -9.484375 4.921875 -9.484375 C 5.222656 -9.484375 5.484375 -9.375 5.703125 -9.15625 C 5.859375 -8.945312 6.007812 -8.742188 6.15625 -8.546875 C 6.351562 -8.304688 6.554688 -8.1875 6.765625 -8.1875 Z M 3.46875 -7.953125 C 3.113281 -7.765625 2.9375 -7.113281 2.9375 -6 C 2.9375 -5.757812 2.945312 -5.398438 2.96875 -4.921875 C 2.988281 -4.441406 3 -4.082031 3 -3.84375 C 3 -3.1875 2.941406 -2.722656 2.828125 -2.453125 C 2.691406 -2.128906 2.289062 -1.773438 1.625 -1.390625 C 1.382812 -1.253906 0.867188 -1.007812 0.078125 -0.65625 L 0.078125 -0.8125 C 0.546875 -1.09375 0.851562 -1.363281 1 -1.625 C 1.15625 -1.894531 1.234375 -2.296875 1.234375 -2.828125 L 1.234375 -4.578125 C 0.910156 -4.566406 0.710938 -4.515625 0.640625 -4.421875 C 0.585938 -4.347656 0.5625 -4.140625 0.5625 -3.796875 L 0.21875 -3.796875 L 0.21875 -6.078125 L 0.5625 -6.078125 C 0.5625 -5.773438 0.582031 -5.585938 0.625 -5.515625 C 0.695312 -5.410156 0.875 -5.359375 1.15625 -5.359375 L 1.234375 -5.359375 L 1.234375 -6.734375 C 1.234375 -7.441406 0.820312 -7.847656 0 -7.953125 L 0 -8.1875 C 0.625 -8.226562 1.050781 -8.304688 1.28125 -8.421875 C 1.632812 -8.609375 1.890625 -8.957031 2.046875 -9.46875 C 2.253906 -8.738281 2.726562 -8.3125 3.46875 -8.1875 Z M 6.765625 -1.25 C 6.222656 -1.132812 5.816406 -1.007812 5.546875 -0.875 C 5.160156 -0.664062 4.851562 -0.367188 4.625 0.015625 C 4.1875 -0.398438 3.625 -0.609375 2.9375 -0.609375 C 2.414062 -0.609375 1.972656 -0.53125 1.609375 -0.375 C 1.085938 -0.164062 0.828125 0.164062 0.828125 0.625 C 0.828125 0.757812 0.875 0.90625 0.96875 1.0625 C 1.070312 1.226562 1.125 1.304688 1.125 1.296875 C 1.125 1.347656 1.085938 1.375 1.015625 1.375 C 0.847656 1.375 0.710938 1.273438 0.609375 1.078125 C 0.503906 0.910156 0.453125 0.738281 0.453125 0.5625 C 0.453125 -0.15625 0.910156 -0.726562 1.828125 -1.15625 C 2.410156 -1.425781 2.742188 -1.59375 2.828125 -1.65625 C 3.191406 -1.882812 3.46875 -2.21875 3.65625 -2.65625 L 3.9375 -2.65625 C 4.300781 -2.195312 4.722656 -1.878906 5.203125 -1.703125 C 5.597656 -1.554688 6.117188 -1.484375 6.765625 -1.484375 Z M 6.765625 -1.25 "/></g></g></g><g fill="#c24914" fill-opacity="1"><g transform="translate(43.497768, 13.215925)"><g><path d="M 7.0625 1.640625 C 6.394531 1.441406 5.941406 1.289062 5.703125 1.1875 C 5.148438 0.925781 4.8125 0.625 4.6875 0.28125 C 4.613281 0.101562 4.578125 -0.285156 4.578125 -0.890625 L 4.578125 -3.421875 C 4.578125 -3.878906 4.453125 -4.191406 4.203125 -4.359375 C 4.003906 -4.503906 3.664062 -4.59375 3.1875 -4.625 L 3.1875 -2.953125 C 3.1875 -2.554688 3.242188 -2.265625 3.359375 -2.078125 C 3.492188 -1.847656 3.75 -1.71875 4.125 -1.6875 L 4.125 -1.453125 C 3.75 -1.421875 3.378906 -1.253906 3.015625 -0.953125 C 2.660156 -0.660156 2.445312 -0.335938 2.375 0.015625 C 2.050781 -0.460938 1.644531 -0.703125 1.15625 -0.703125 C 0.914062 -0.703125 0.710938 -0.632812 0.546875 -0.5 C 0.390625 -0.375 0.3125 -0.203125 0.3125 0.015625 C 0.3125 0.253906 0.398438 0.40625 0.578125 0.46875 C 0.671875 0.5 0.71875 0.53125 0.71875 0.5625 C 0.71875 0.613281 0.675781 0.640625 0.59375 0.640625 C 0.375 0.640625 0.207031 0.53125 0.09375 0.3125 C -0.0195312 0.132812 -0.078125 -0.0664062 -0.078125 -0.296875 C -0.078125 -1.066406 0.425781 -1.53125 1.4375 -1.6875 L 1.4375 -4.625 C 1.15625 -4.613281 0.988281 -4.546875 0.9375 -4.421875 C 0.914062 -4.359375 0.90625 -4.171875 0.90625 -3.859375 L 0.5625 -3.859375 L 0.5625 -6.125 L 0.90625 -6.125 L 0.90625 -5.96875 C 0.90625 -5.925781 0.90625 -5.875 0.90625 -5.8125 C 0.90625 -5.519531 1.050781 -5.375 1.34375 -5.375 L 1.4375 -5.375 L 1.4375 -6.453125 C 1.4375 -6.878906 1.332031 -7.234375 1.125 -7.515625 C 0.882812 -7.835938 0.554688 -7.992188 0.140625 -7.984375 L 0.140625 -8.234375 L 1.25 -8.234375 C 1.875 -8.234375 2.34375 -8.296875 2.65625 -8.421875 C 2.800781 -8.492188 3.03125 -8.644531 3.34375 -8.875 C 3.65625 -9.113281 3.992188 -9.28125 4.359375 -9.375 C 4.484375 -9.40625 4.59375 -9.421875 4.6875 -9.421875 C 4.84375 -9.421875 4.96875 -9.363281 5.0625 -9.25 C 5.382812 -8.914062 5.664062 -8.675781 5.90625 -8.53125 C 6.195312 -8.363281 6.546875 -8.265625 6.953125 -8.234375 L 6.953125 -7.984375 C 6.671875 -7.960938 6.476562 -7.859375 6.375 -7.671875 C 6.28125 -7.523438 6.234375 -7.300781 6.234375 -7 L 6.234375 -5.953125 C 6.234375 -5.585938 6.023438 -5.300781 5.609375 -5.09375 C 5.296875 -4.945312 4.925781 -4.851562 4.5 -4.8125 C 4.820312 -4.800781 5.195312 -4.664062 5.625 -4.40625 C 6.050781 -4.15625 6.359375 -4.03125 6.546875 -4.03125 C 6.671875 -4.03125 6.804688 -4.050781 6.953125 -4.09375 L 6.953125 -3.859375 C 6.398438 -3.742188 6.125 -3.4375 6.125 -2.9375 L 6.125 -0.0625 C 6.125 0.570312 6.4375 1.050781 7.0625 1.375 Z M 4.578125 -5.59375 L 4.578125 -6.921875 C 4.578125 -7.316406 4.441406 -7.625 4.171875 -7.84375 C 3.960938 -8 3.632812 -8.128906 3.1875 -8.234375 L 3.1875 -4.953125 C 3.65625 -4.972656 3.945312 -5.003906 4.0625 -5.046875 C 4.40625 -5.128906 4.578125 -5.3125 4.578125 -5.59375 Z M 4.578125 -5.59375 "/></g></g></g><g fill="#c24914" fill-opacity="1"><g transform="translate(54.242013, 13.215925)"><g><path d="M 5.046875 -1.296875 L 4.953125 -1.296875 C 4.503906 -1.296875 4.097656 -1.191406 3.734375 -0.984375 C 3.335938 -0.765625 3.082031 -0.441406 2.96875 -0.015625 C 2.59375 -0.492188 2.179688 -0.734375 1.734375 -0.734375 C 1.492188 -0.734375 1.28125 -0.664062 1.09375 -0.53125 C 0.882812 -0.382812 0.78125 -0.203125 0.78125 0.015625 C 0.78125 0.0664062 0.804688 0.164062 0.859375 0.3125 C 0.910156 0.457031 0.9375 0.546875 0.9375 0.578125 C 0.9375 0.648438 0.914062 0.6875 0.875 0.6875 C 0.769531 0.6875 0.664062 0.550781 0.5625 0.28125 C 0.46875 0.0507812 0.421875 -0.128906 0.421875 -0.265625 C 0.421875 -0.710938 0.597656 -1.078125 0.953125 -1.359375 C 1.273438 -1.609375 1.664062 -1.742188 2.125 -1.765625 L 2.125 -7.875 C 2.125 -8.1875 2.039062 -8.441406 1.875 -8.640625 C 1.707031 -8.835938 1.46875 -8.9375 1.15625 -8.9375 C 0.9375 -8.9375 0.738281 -8.859375 0.5625 -8.703125 C 0.382812 -8.554688 0.296875 -8.378906 0.296875 -8.171875 C 0.296875 -8.035156 0.359375 -7.890625 0.484375 -7.734375 C 0.617188 -7.585938 0.6875 -7.519531 0.6875 -7.53125 C 0.6875 -7.476562 0.65625 -7.453125 0.59375 -7.453125 C 0.425781 -7.453125 0.285156 -7.519531 0.171875 -7.65625 C 0.0546875 -7.800781 0 -7.96875 0 -8.15625 C 0 -8.570312 0.207031 -8.894531 0.625 -9.125 C 0.957031 -9.3125 1.347656 -9.40625 1.796875 -9.40625 C 2.117188 -9.40625 2.453125 -9.304688 2.796875 -9.109375 C 3.078125 -8.910156 3.363281 -8.710938 3.65625 -8.515625 C 4.019531 -8.316406 4.484375 -8.222656 5.046875 -8.234375 L 5.046875 -8 L 4.984375 -8 C 4.609375 -8 4.320312 -7.832031 4.125 -7.5 C 3.945312 -7.207031 3.859375 -6.859375 3.859375 -6.453125 L 3.859375 -5.34375 L 4.4375 -5.34375 L 4.4375 -4.65625 L 3.859375 -4.65625 L 3.859375 -3.03125 C 3.859375 -2.09375 4.253906 -1.59375 5.046875 -1.53125 Z M 1.421875 -1.859375 C 1.335938 -1.828125 1.242188 -1.785156 1.140625 -1.734375 L 1.140625 -4.625 C 1.085938 -4.632812 1.019531 -4.640625 0.9375 -4.640625 C 0.707031 -4.640625 0.566406 -4.554688 0.515625 -4.390625 C 0.492188 -4.328125 0.484375 -4.140625 0.484375 -3.828125 L 0.1875 -3.828125 L 0.1875 -6.09375 L 0.484375 -6.09375 C 0.484375 -5.832031 0.5 -5.660156 0.53125 -5.578125 C 0.59375 -5.460938 0.742188 -5.40625 0.984375 -5.40625 L 1.140625 -5.40625 L 1.140625 -8.734375 C 1.253906 -8.734375 1.347656 -8.722656 1.421875 -8.703125 Z M 1.421875 -1.859375 "/></g></g></g><g fill="#c24914" fill-opacity="1"><g transform="translate(63.043247, 13.215925)"><g><path d="M 4.765625 -0.40625 L 4.671875 -0.40625 C 4.628906 -0.40625 4.578125 -0.414062 4.515625 -0.4375 L 4.515625 -7.6875 L 4.765625 -7.6875 Z M 7.625 -7.96875 C 7.269531 -7.90625 7 -7.695312 6.8125 -7.34375 C 6.664062 -7.050781 6.59375 -6.703125 6.59375 -6.296875 L 6.59375 -4.765625 C 6.59375 -3.378906 6.90625 -2.46875 7.53125 -2.03125 C 7.382812 -1.3125 7.023438 -0.75 6.453125 -0.34375 C 5.921875 0.0507812 5.285156 0.25 4.546875 0.25 C 3.984375 0.25 3.53125 0.109375 3.1875 -0.171875 C 2.957031 -0.359375 2.671875 -0.613281 2.328125 -0.9375 C 1.953125 -1.195312 1.46875 -1.320312 0.875 -1.3125 L 0.875 -1.5625 C 1.363281 -1.570312 1.679688 -1.738281 1.828125 -2.0625 C 1.929688 -2.300781 1.984375 -2.6875 1.984375 -3.21875 L 1.984375 -4.484375 C 1.953125 -4.484375 1.894531 -4.484375 1.8125 -4.484375 C 1.425781 -4.484375 1.234375 -4.300781 1.234375 -3.9375 C 1.234375 -3.84375 1.238281 -3.75 1.25 -3.65625 L 0.953125 -3.65625 L 0.953125 -5.984375 L 1.25 -5.984375 C 1.238281 -5.859375 1.234375 -5.742188 1.234375 -5.640625 C 1.234375 -5.367188 1.484375 -5.234375 1.984375 -5.234375 L 1.984375 -7.859375 C 1.984375 -8.179688 1.894531 -8.4375 1.71875 -8.625 C 1.550781 -8.820312 1.3125 -8.921875 1 -8.921875 C 0.769531 -8.921875 0.566406 -8.84375 0.390625 -8.6875 C 0.210938 -8.539062 0.125 -8.363281 0.125 -8.15625 C 0.125 -8 0.1875 -7.847656 0.3125 -7.703125 C 0.445312 -7.554688 0.515625 -7.484375 0.515625 -7.484375 C 0.515625 -7.441406 0.488281 -7.421875 0.4375 -7.421875 C 0.269531 -7.421875 0.125 -7.492188 0 -7.640625 C -0.113281 -7.796875 -0.171875 -7.957031 -0.171875 -8.125 C -0.171875 -8.550781 0.03125 -8.878906 0.4375 -9.109375 C 0.789062 -9.304688 1.1875 -9.40625 1.625 -9.40625 C 2 -9.40625 2.3125 -9.300781 2.5625 -9.09375 C 2.71875 -8.96875 2.945312 -8.769531 3.25 -8.5 C 3.570312 -8.289062 4.023438 -8.195312 4.609375 -8.21875 L 4.609375 -7.96875 C 4.023438 -8 3.734375 -7.492188 3.734375 -6.453125 L 3.734375 -2.671875 C 3.734375 -1.378906 3.890625 -0.613281 4.203125 -0.375 C 4.347656 -0.25 4.5625 -0.1875 4.84375 -0.1875 L 4.921875 -0.1875 C 5.347656 -0.1875 5.65625 -0.351562 5.84375 -0.6875 C 5.96875 -0.90625 6.050781 -1.253906 6.09375 -1.734375 C 6.132812 -2.140625 6.15625 -2.578125 6.15625 -3.046875 L 6.15625 -6.28125 C 6.15625 -7.289062 5.796875 -7.851562 5.078125 -7.96875 L 5.078125 -8.21875 C 5.828125 -8.289062 6.253906 -8.664062 6.359375 -9.34375 C 6.453125 -8.957031 6.582031 -8.691406 6.75 -8.546875 C 6.925781 -8.410156 7.21875 -8.300781 7.625 -8.21875 Z M 7.625 -7.96875 "/></g></g></g><g fill="#c24914" fill-opacity="1"><g transform="translate(74.502241, 13.215925)"><g><path d="M 3.703125 -2.8125 L 3.421875 -2.8125 L 3.421875 -8.53125 C 3.492188 -8.59375 3.585938 -8.644531 3.703125 -8.6875 Z M 6.125 -7.734375 C 6.019531 -7.722656 5.894531 -7.660156 5.75 -7.546875 C 5.207031 -7.128906 4.945312 -6.492188 4.96875 -5.640625 C 4.914062 -6.191406 4.835938 -6.609375 4.734375 -6.890625 C 4.546875 -7.378906 4.253906 -7.660156 3.859375 -7.734375 L 3.859375 -7.953125 C 4.390625 -8.035156 4.65625 -8.210938 4.65625 -8.484375 C 4.65625 -8.617188 4.585938 -8.726562 4.453125 -8.8125 C 4.328125 -8.90625 4.179688 -8.953125 4.015625 -8.953125 C 3.703125 -8.953125 3.4375 -8.859375 3.21875 -8.671875 C 3.007812 -8.484375 2.90625 -8.242188 2.90625 -7.953125 L 2.90625 -3.6875 C 2.90625 -2.789062 2.679688 -2.128906 2.234375 -1.703125 C 1.921875 -1.398438 1.289062 -1.082031 0.34375 -0.75 L 0.34375 -0.9375 C 0.78125 -1.15625 1.054688 -1.351562 1.171875 -1.53125 C 1.285156 -1.707031 1.34375 -2.035156 1.34375 -2.515625 L 1.34375 -4.53125 C 1.289062 -4.539062 1.238281 -4.546875 1.1875 -4.546875 C 0.976562 -4.546875 0.847656 -4.460938 0.796875 -4.296875 C 0.773438 -4.222656 0.765625 -4.054688 0.765625 -3.796875 L 0.421875 -3.796875 L 0.421875 -5.921875 L 0.765625 -5.921875 C 0.765625 -5.617188 0.78125 -5.441406 0.8125 -5.390625 C 0.875 -5.285156 1.035156 -5.234375 1.296875 -5.234375 L 1.34375 -5.234375 L 1.34375 -6.125 C 1.34375 -6.507812 1.21875 -6.863281 0.96875 -7.1875 C 0.695312 -7.550781 0.375 -7.726562 0 -7.71875 L 0 -7.953125 L 0.140625 -7.953125 C 0.878906 -7.953125 1.457031 -8.0625 1.875 -8.28125 L 2.75 -8.921875 C 3.070312 -9.148438 3.488281 -9.265625 4 -9.265625 C 4.363281 -9.265625 4.675781 -9.164062 4.9375 -8.96875 C 5.019531 -8.894531 5.203125 -8.695312 5.484375 -8.375 C 5.691406 -8.15625 5.90625 -8.015625 6.125 -7.953125 Z M 6.34375 -1.484375 C 5.5 -1.316406 4.84375 -0.828125 4.375 -0.015625 C 3.875 -0.492188 3.28125 -0.734375 2.59375 -0.734375 C 2.15625 -0.734375 1.757812 -0.648438 1.40625 -0.484375 C 0.957031 -0.285156 0.734375 0.00390625 0.734375 0.390625 C 0.734375 0.523438 0.78125 0.664062 0.875 0.8125 C 0.96875 0.96875 1.015625 1.039062 1.015625 1.03125 C 1.015625 1.082031 0.984375 1.109375 0.921875 1.109375 C 0.765625 1.109375 0.632812 1.015625 0.53125 0.828125 C 0.4375 0.691406 0.390625 0.53125 0.390625 0.34375 C 0.390625 -0.320312 0.835938 -0.859375 1.734375 -1.265625 C 2.335938 -1.546875 2.675781 -1.710938 2.75 -1.765625 C 3.113281 -1.992188 3.382812 -2.285156 3.5625 -2.640625 C 3.863281 -2.253906 4.285156 -1.992188 4.828125 -1.859375 C 5.191406 -1.765625 5.695312 -1.71875 6.34375 -1.71875 Z M 6.34375 -1.484375 "/></g></g></g><g fill="#c24914" fill-opacity="1"><g transform="translate(84.413769, 13.215925)"><g/></g></g><g fill="#c24914" fill-opacity="1"><g transform="translate(92.840273, 13.215925)"><g><path d="M 6.765625 -7.953125 C 6.441406 -7.921875 6.15625 -7.726562 5.90625 -7.375 C 5.695312 -7.082031 5.554688 -6.75 5.484375 -6.375 C 5.410156 -6.851562 5.289062 -7.203125 5.125 -7.421875 C 4.925781 -7.691406 4.609375 -7.867188 4.171875 -7.953125 L 4.171875 -8.1875 L 4.21875 -8.1875 C 4.4375 -8.1875 4.632812 -8.238281 4.8125 -8.34375 C 5.039062 -8.457031 5.15625 -8.613281 5.15625 -8.8125 C 5.15625 -9.007812 5.035156 -9.109375 4.796875 -9.109375 C 4.222656 -9.109375 3.9375 -8.71875 3.9375 -7.9375 L 3.9375 -5.359375 C 4.257812 -5.367188 4.453125 -5.40625 4.515625 -5.46875 C 4.578125 -5.53125 4.609375 -5.710938 4.609375 -6.015625 L 4.953125 -6.015625 L 4.953125 -3.796875 L 4.609375 -3.796875 C 4.609375 -4.066406 4.585938 -4.253906 4.546875 -4.359375 C 4.460938 -4.503906 4.296875 -4.578125 4.046875 -4.578125 L 3.9375 -4.578125 L 3.9375 -2.8125 L 3.65625 -2.8125 L 3.65625 -7.828125 C 3.65625 -8.929688 4.078125 -9.484375 4.921875 -9.484375 C 5.222656 -9.484375 5.484375 -9.375 5.703125 -9.15625 C 5.859375 -8.945312 6.007812 -8.742188 6.15625 -8.546875 C 6.351562 -8.304688 6.554688 -8.1875 6.765625 -8.1875 Z M 3.46875 -7.953125 C 3.113281 -7.765625 2.9375 -7.113281 2.9375 -6 C 2.9375 -5.757812 2.945312 -5.398438 2.96875 -4.921875 C 2.988281 -4.441406 3 -4.082031 3 -3.84375 C 3 -3.1875 2.941406 -2.722656 2.828125 -2.453125 C 2.691406 -2.128906 2.289062 -1.773438 1.625 -1.390625 C 1.382812 -1.253906 0.867188 -1.007812 0.078125 -0.65625 L 0.078125 -0.8125 C 0.546875 -1.09375 0.851562 -1.363281 1 -1.625 C 1.15625 -1.894531 1.234375 -2.296875 1.234375 -2.828125 L 1.234375 -4.578125 C 0.910156 -4.566406 0.710938 -4.515625 0.640625 -4.421875 C 0.585938 -4.347656 0.5625 -4.140625 0.5625 -3.796875 L 0.21875 -3.796875 L 0.21875 -6.078125 L 0.5625 -6.078125 C 0.5625 -5.773438 0.582031 -5.585938 0.625 -5.515625 C 0.695312 -5.410156 0.875 -5.359375 1.15625 -5.359375 L 1.234375 -5.359375 L 1.234375 -6.734375 C 1.234375 -7.441406 0.820312 -7.847656 0 -7.953125 L 0 -8.1875 C 0.625 -8.226562 1.050781 -8.304688 1.28125 -8.421875 C 1.632812 -8.609375 1.890625 -8.957031 2.046875 -9.46875 C 2.253906 -8.738281 2.726562 -8.3125 3.46875 -8.1875 Z M 6.765625 -1.25 C 6.222656 -1.132812 5.816406 -1.007812 5.546875 -0.875 C 5.160156 -0.664062 4.851562 -0.367188 4.625 0.015625 C 4.1875 -0.398438 3.625 -0.609375 2.9375 -0.609375 C 2.414062 -0.609375 1.972656 -0.53125 1.609375 -0.375 C 1.085938 -0.164062 0.828125 0.164062 0.828125 0.625 C 0.828125 0.757812 0.875 0.90625 0.96875 1.0625 C 1.070312 1.226562 1.125 1.304688 1.125 1.296875 C 1.125 1.347656 1.085938 1.375 1.015625 1.375 C 0.847656 1.375 0.710938 1.273438 0.609375 1.078125 C 0.503906 0.910156 0.453125 0.738281 0.453125 0.5625 C 0.453125 -0.15625 0.910156 -0.726562 1.828125 -1.15625 C 2.410156 -1.425781 2.742188 -1.59375 2.828125 -1.65625 C 3.191406 -1.882812 3.46875 -2.21875 3.65625 -2.65625 L 3.9375 -2.65625 C 4.300781 -2.195312 4.722656 -1.878906 5.203125 -1.703125 C 5.597656 -1.554688 6.117188 -1.484375 6.765625 -1.484375 Z M 6.765625 -1.25 "/></g></g></g><g fill="#c24914" fill-opacity="1"><g transform="translate(103.300012, 13.215925)"><g><path d="M 6.90625 -1.296875 C 6.4375 -1.253906 6.0625 -1.125 5.78125 -0.90625 C 5.539062 -0.71875 5.300781 -0.394531 5.0625 0.0625 C 4.882812 -0.0195312 4.59375 -0.265625 4.1875 -0.671875 C 3.851562 -1.015625 3.5 -1.222656 3.125 -1.296875 L 3.125 -1.53125 L 3.1875 -1.53125 C 3.5625 -1.53125 3.75 -1.679688 3.75 -1.984375 C 3.75 -2.210938 3.632812 -2.566406 3.40625 -3.046875 C 3.25 -3.378906 3.082031 -3.734375 2.90625 -4.109375 C 2.800781 -3.867188 2.640625 -3.503906 2.421875 -3.015625 C 2.203125 -2.492188 2.09375 -2.132812 2.09375 -1.9375 C 2.09375 -1.75 2.1875 -1.625 2.375 -1.5625 C 2.457031 -1.539062 2.632812 -1.53125 2.90625 -1.53125 L 2.90625 -1.296875 C 2.144531 -1.203125 1.707031 -0.75 1.59375 0.0625 C 1.46875 -0.238281 1.257812 -0.390625 0.96875 -0.390625 C 0.789062 -0.390625 0.632812 -0.332031 0.5 -0.21875 C 0.375 -0.113281 0.3125 0.0078125 0.3125 0.15625 C 0.3125 0.332031 0.367188 0.472656 0.484375 0.578125 C 0.566406 0.640625 0.707031 0.71875 0.90625 0.8125 C 0.90625 0.84375 0.878906 0.859375 0.828125 0.859375 C 0.566406 0.859375 0.351562 0.726562 0.1875 0.46875 C 0.0390625 0.25 -0.03125 0 -0.03125 -0.28125 C -0.03125 -0.632812 0.0820312 -0.960938 0.3125 -1.265625 C 0.539062 -1.566406 0.820312 -1.71875 1.15625 -1.71875 C 1.226562 -1.71875 1.285156 -1.710938 1.328125 -1.703125 C 1.597656 -2.234375 1.800781 -2.632812 1.9375 -2.90625 C 2.25 -3.507812 2.40625 -3.894531 2.40625 -4.0625 C 2.40625 -4.382812 2.203125 -4.609375 1.796875 -4.734375 C 2.097656 -4.785156 2.25 -4.976562 2.25 -5.3125 C 2.25 -5.46875 2.207031 -5.640625 2.125 -5.828125 C 1.8125 -6.554688 1.570312 -7.019531 1.40625 -7.21875 C 1.070312 -7.644531 0.617188 -7.859375 0.046875 -7.859375 L 0.046875 -8.09375 C 0.546875 -8.113281 0.925781 -8.210938 1.1875 -8.390625 C 1.414062 -8.554688 1.648438 -8.875 1.890625 -9.34375 C 2.003906 -9.289062 2.3125 -9.039062 2.8125 -8.59375 C 3.1875 -8.238281 3.523438 -8.070312 3.828125 -8.09375 L 3.828125 -7.859375 C 3.585938 -7.859375 3.46875 -7.671875 3.46875 -7.296875 C 3.46875 -7.015625 3.566406 -6.648438 3.765625 -6.203125 C 3.765625 -6.191406 3.929688 -5.847656 4.265625 -5.171875 C 4.367188 -5.347656 4.523438 -5.617188 4.734375 -5.984375 C 4.910156 -6.328125 5 -6.625 5 -6.875 C 5 -7.09375 4.925781 -7.296875 4.78125 -7.484375 C 4.632812 -7.671875 4.445312 -7.796875 4.21875 -7.859375 L 4.21875 -8.09375 C 4.550781 -8.132812 4.828125 -8.269531 5.046875 -8.5 C 5.265625 -8.726562 5.398438 -9.007812 5.453125 -9.34375 C 5.566406 -8.675781 5.972656 -8.257812 6.671875 -8.09375 L 6.671875 -7.859375 C 6.191406 -7.734375 5.710938 -7.210938 5.234375 -6.296875 C 4.921875 -5.710938 4.765625 -5.378906 4.765625 -5.296875 C 4.765625 -5.023438 4.96875 -4.847656 5.375 -4.765625 C 5.039062 -4.578125 4.875 -4.316406 4.875 -3.984375 C 4.875 -3.816406 5.113281 -3.234375 5.59375 -2.234375 C 5.757812 -1.898438 5.929688 -1.695312 6.109375 -1.625 C 6.253906 -1.5625 6.519531 -1.53125 6.90625 -1.53125 Z M 6.90625 -1.296875 "/></g></g></g><g fill="#c24914" fill-opacity="1"><g transform="translate(113.891586, 13.215925)"><g><path d="M 7.15625 -4.953125 L 7.140625 -4.71875 C 6.703125 -4.71875 6.335938 -4.546875 6.046875 -4.203125 C 5.765625 -3.890625 5.59375 -3.503906 5.53125 -3.046875 C 5.457031 -3.546875 5.242188 -3.925781 4.890625 -4.1875 C 4.535156 -4.457031 4.097656 -4.59375 3.578125 -4.59375 L 3.359375 -4.59375 L 3.359375 -2.9375 C 3.359375 -2.550781 3.421875 -2.257812 3.546875 -2.0625 C 3.703125 -1.832031 3.96875 -1.707031 4.34375 -1.6875 L 4.34375 -1.4375 C 3.988281 -1.40625 3.628906 -1.238281 3.265625 -0.9375 C 2.898438 -0.644531 2.6875 -0.328125 2.625 0.015625 C 2.289062 -0.472656 1.882812 -0.71875 1.40625 -0.71875 C 1.175781 -0.71875 0.976562 -0.648438 0.8125 -0.515625 C 0.65625 -0.378906 0.578125 -0.203125 0.578125 0.015625 C 0.578125 0.222656 0.664062 0.363281 0.84375 0.4375 C 0.925781 0.476562 0.96875 0.515625 0.96875 0.546875 C 0.96875 0.597656 0.925781 0.625 0.84375 0.625 C 0.632812 0.625 0.46875 0.515625 0.34375 0.296875 C 0.238281 0.109375 0.1875 -0.09375 0.1875 -0.3125 C 0.1875 -1.0625 0.6875 -1.519531 1.6875 -1.6875 L 1.6875 -4.59375 C 1.425781 -4.570312 1.265625 -4.5 1.203125 -4.375 C 1.171875 -4.289062 1.15625 -4.109375 1.15625 -3.828125 L 0.796875 -3.828125 L 0.796875 -5.953125 L 1.140625 -5.953125 C 1.128906 -5.847656 1.125 -5.753906 1.125 -5.671875 C 1.125 -5.453125 1.25 -5.34375 1.5 -5.34375 L 1.6875 -5.34375 L 1.6875 -5.953125 C 1.6875 -6.285156 1.628906 -6.546875 1.515625 -6.734375 C 1.398438 -6.921875 1.1875 -7.046875 0.875 -7.109375 C 1.351562 -7.242188 1.695312 -7.410156 1.90625 -7.609375 C 2.125 -7.816406 2.316406 -8.148438 2.484375 -8.609375 C 2.609375 -8.242188 2.832031 -7.914062 3.15625 -7.625 C 3.519531 -7.289062 3.878906 -7.125 4.234375 -7.125 C 3.648438 -6.9375 3.359375 -6.546875 3.359375 -5.953125 L 3.359375 -4.921875 C 3.410156 -4.910156 3.484375 -4.90625 3.578125 -4.90625 C 4.003906 -4.90625 4.300781 -5.019531 4.46875 -5.25 C 4.601562 -5.445312 4.671875 -5.765625 4.671875 -6.203125 C 4.671875 -6.316406 4.671875 -6.410156 4.671875 -6.484375 L 4.671875 -6.796875 C 4.671875 -7.441406 4.472656 -7.972656 4.078125 -8.390625 C 3.679688 -8.804688 3.160156 -9.015625 2.515625 -9.015625 C 1.941406 -9.015625 1.445312 -8.875 1.03125 -8.59375 C 0.550781 -8.28125 0.3125 -7.851562 0.3125 -7.3125 C 0.3125 -7.144531 0.363281 -6.945312 0.46875 -6.71875 C 0.570312 -6.488281 0.625 -6.363281 0.625 -6.34375 L 0.578125 -6.296875 C 0.398438 -6.335938 0.25 -6.476562 0.125 -6.71875 C 0.0195312 -6.9375 -0.03125 -7.148438 -0.03125 -7.359375 C -0.03125 -8.015625 0.289062 -8.53125 0.9375 -8.90625 C 1.46875 -9.207031 2.085938 -9.359375 2.796875 -9.359375 C 3.503906 -9.359375 4.1875 -9.171875 4.84375 -8.796875 C 5.3125 -8.523438 5.597656 -8.375 5.703125 -8.34375 C 6.054688 -8.207031 6.519531 -8.140625 7.09375 -8.140625 L 7.140625 -8.140625 L 7.140625 -7.90625 C 6.742188 -7.882812 6.488281 -7.691406 6.375 -7.328125 C 6.320312 -7.160156 6.296875 -6.8125 6.296875 -6.28125 C 6.296875 -5.882812 6.335938 -5.59375 6.421875 -5.40625 C 6.554688 -5.132812 6.800781 -4.984375 7.15625 -4.953125 Z M 7.15625 -4.953125 "/></g></g></g><g fill="#c24914" fill-opacity="1"><g transform="translate(124.649709, 13.215925)"><g><path d="M 6.765625 -7.953125 C 6.441406 -7.921875 6.15625 -7.726562 5.90625 -7.375 C 5.695312 -7.082031 5.554688 -6.75 5.484375 -6.375 C 5.410156 -6.851562 5.289062 -7.203125 5.125 -7.421875 C 4.925781 -7.691406 4.609375 -7.867188 4.171875 -7.953125 L 4.171875 -8.1875 L 4.21875 -8.1875 C 4.4375 -8.1875 4.632812 -8.238281 4.8125 -8.34375 C 5.039062 -8.457031 5.15625 -8.613281 5.15625 -8.8125 C 5.15625 -9.007812 5.035156 -9.109375 4.796875 -9.109375 C 4.222656 -9.109375 3.9375 -8.71875 3.9375 -7.9375 L 3.9375 -5.359375 C 4.257812 -5.367188 4.453125 -5.40625 4.515625 -5.46875 C 4.578125 -5.53125 4.609375 -5.710938 4.609375 -6.015625 L 4.953125 -6.015625 L 4.953125 -3.796875 L 4.609375 -3.796875 C 4.609375 -4.066406 4.585938 -4.253906 4.546875 -4.359375 C 4.460938 -4.503906 4.296875 -4.578125 4.046875 -4.578125 L 3.9375 -4.578125 L 3.9375 -2.8125 L 3.65625 -2.8125 L 3.65625 -7.828125 C 3.65625 -8.929688 4.078125 -9.484375 4.921875 -9.484375 C 5.222656 -9.484375 5.484375 -9.375 5.703125 -9.15625 C 5.859375 -8.945312 6.007812 -8.742188 6.15625 -8.546875 C 6.351562 -8.304688 6.554688 -8.1875 6.765625 -8.1875 Z M 3.46875 -7.953125 C 3.113281 -7.765625 2.9375 -7.113281 2.9375 -6 C 2.9375 -5.757812 2.945312 -5.398438 2.96875 -4.921875 C 2.988281 -4.441406 3 -4.082031 3 -3.84375 C 3 -3.1875 2.941406 -2.722656 2.828125 -2.453125 C 2.691406 -2.128906 2.289062 -1.773438 1.625 -1.390625 C 1.382812 -1.253906 0.867188 -1.007812 0.078125 -0.65625 L 0.078125 -0.8125 C 0.546875 -1.09375 0.851562 -1.363281 1 -1.625 C 1.15625 -1.894531 1.234375 -2.296875 1.234375 -2.828125 L 1.234375 -4.578125 C 0.910156 -4.566406 0.710938 -4.515625 0.640625 -4.421875 C 0.585938 -4.347656 0.5625 -4.140625 0.5625 -3.796875 L 0.21875 -3.796875 L 0.21875 -6.078125 L 0.5625 -6.078125 C 0.5625 -5.773438 0.582031 -5.585938 0.625 -5.515625 C 0.695312 -5.410156 0.875 -5.359375 1.15625 -5.359375 L 1.234375 -5.359375 L 1.234375 -6.734375 C 1.234375 -7.441406 0.820312 -7.847656 0 -7.953125 L 0 -8.1875 C 0.625 -8.226562 1.050781 -8.304688 1.28125 -8.421875 C 1.632812 -8.609375 1.890625 -8.957031 2.046875 -9.46875 C 2.253906 -8.738281 2.726562 -8.3125 3.46875 -8.1875 Z M 6.765625 -1.25 C 6.222656 -1.132812 5.816406 -1.007812 5.546875 -0.875 C 5.160156 -0.664062 4.851562 -0.367188 4.625 0.015625 C 4.1875 -0.398438 3.625 -0.609375 2.9375 -0.609375 C 2.414062 -0.609375 1.972656 -0.53125 1.609375 -0.375 C 1.085938 -0.164062 0.828125 0.164062 0.828125 0.625 C 0.828125 0.757812 0.875 0.90625 0.96875 1.0625 C 1.070312 1.226562 1.125 1.304688 1.125 1.296875 C 1.125 1.347656 1.085938 1.375 1.015625 1.375 C 0.847656 1.375 0.710938 1.273438 0.609375 1.078125 C 0.503906 0.910156 0.453125 0.738281 0.453125 0.5625 C 0.453125 -0.15625 0.910156 -0.726562 1.828125 -1.15625 C 2.410156 -1.425781 2.742188 -1.59375 2.828125 -1.65625 C 3.191406 -1.882812 3.46875 -2.21875 3.65625 -2.65625 L 3.9375 -2.65625 C 4.300781 -2.195312 4.722656 -1.878906 5.203125 -1.703125 C 5.597656 -1.554688 6.117188 -1.484375 6.765625 -1.484375 Z M 6.765625 -1.25 "/></g></g></g><g fill="#c24914" fill-opacity="1"><g transform="translate(135.109438, 13.215925)"><g><path d="M 7.0625 1.640625 C 6.394531 1.441406 5.941406 1.289062 5.703125 1.1875 C 5.148438 0.925781 4.8125 0.625 4.6875 0.28125 C 4.613281 0.101562 4.578125 -0.285156 4.578125 -0.890625 L 4.578125 -3.421875 C 4.578125 -3.878906 4.453125 -4.191406 4.203125 -4.359375 C 4.003906 -4.503906 3.664062 -4.59375 3.1875 -4.625 L 3.1875 -2.953125 C 3.1875 -2.554688 3.242188 -2.265625 3.359375 -2.078125 C 3.492188 -1.847656 3.75 -1.71875 4.125 -1.6875 L 4.125 -1.453125 C 3.75 -1.421875 3.378906 -1.253906 3.015625 -0.953125 C 2.660156 -0.660156 2.445312 -0.335938 2.375 0.015625 C 2.050781 -0.460938 1.644531 -0.703125 1.15625 -0.703125 C 0.914062 -0.703125 0.710938 -0.632812 0.546875 -0.5 C 0.390625 -0.375 0.3125 -0.203125 0.3125 0.015625 C 0.3125 0.253906 0.398438 0.40625 0.578125 0.46875 C 0.671875 0.5 0.71875 0.53125 0.71875 0.5625 C 0.71875 0.613281 0.675781 0.640625 0.59375 0.640625 C 0.375 0.640625 0.207031 0.53125 0.09375 0.3125 C -0.0195312 0.132812 -0.078125 -0.0664062 -0.078125 -0.296875 C -0.078125 -1.066406 0.425781 -1.53125 1.4375 -1.6875 L 1.4375 -4.625 C 1.15625 -4.613281 0.988281 -4.546875 0.9375 -4.421875 C 0.914062 -4.359375 0.90625 -4.171875 0.90625 -3.859375 L 0.5625 -3.859375 L 0.5625 -6.125 L 0.90625 -6.125 L 0.90625 -5.96875 C 0.90625 -5.925781 0.90625 -5.875 0.90625 -5.8125 C 0.90625 -5.519531 1.050781 -5.375 1.34375 -5.375 L 1.4375 -5.375 L 1.4375 -6.453125 C 1.4375 -6.878906 1.332031 -7.234375 1.125 -7.515625 C 0.882812 -7.835938 0.554688 -7.992188 0.140625 -7.984375 L 0.140625 -8.234375 L 1.25 -8.234375 C 1.875 -8.234375 2.34375 -8.296875 2.65625 -8.421875 C 2.800781 -8.492188 3.03125 -8.644531 3.34375 -8.875 C 3.65625 -9.113281 3.992188 -9.28125 4.359375 -9.375 C 4.484375 -9.40625 4.59375 -9.421875 4.6875 -9.421875 C 4.84375 -9.421875 4.96875 -9.363281 5.0625 -9.25 C 5.382812 -8.914062 5.664062 -8.675781 5.90625 -8.53125 C 6.195312 -8.363281 6.546875 -8.265625 6.953125 -8.234375 L 6.953125 -7.984375 C 6.671875 -7.960938 6.476562 -7.859375 6.375 -7.671875 C 6.28125 -7.523438 6.234375 -7.300781 6.234375 -7 L 6.234375 -5.953125 C 6.234375 -5.585938 6.023438 -5.300781 5.609375 -5.09375 C 5.296875 -4.945312 4.925781 -4.851562 4.5 -4.8125 C 4.820312 -4.800781 5.195312 -4.664062 5.625 -4.40625 C 6.050781 -4.15625 6.359375 -4.03125 6.546875 -4.03125 C 6.671875 -4.03125 6.804688 -4.050781 6.953125 -4.09375 L 6.953125 -3.859375 C 6.398438 -3.742188 6.125 -3.4375 6.125 -2.9375 L 6.125 -0.0625 C 6.125 0.570312 6.4375 1.050781 7.0625 1.375 Z M 4.578125 -5.59375 L 4.578125 -6.921875 C 4.578125 -7.316406 4.441406 -7.625 4.171875 -7.84375 C 3.960938 -8 3.632812 -8.128906 3.1875 -8.234375 L 3.1875 -4.953125 C 3.65625 -4.972656 3.945312 -5.003906 4.0625 -5.046875 C 4.40625 -5.128906 4.578125 -5.3125 4.578125 -5.59375 Z M 4.578125 -5.59375 "/></g></g></g><g fill="#c24914" fill-opacity="1"><g transform="translate(145.853683, 13.215925)"><g><path d="M 5.046875 -1.296875 L 4.953125 -1.296875 C 4.503906 -1.296875 4.097656 -1.191406 3.734375 -0.984375 C 3.335938 -0.765625 3.082031 -0.441406 2.96875 -0.015625 C 2.59375 -0.492188 2.179688 -0.734375 1.734375 -0.734375 C 1.492188 -0.734375 1.28125 -0.664062 1.09375 -0.53125 C 0.882812 -0.382812 0.78125 -0.203125 0.78125 0.015625 C 0.78125 0.0664062 0.804688 0.164062 0.859375 0.3125 C 0.910156 0.457031 0.9375 0.546875 0.9375 0.578125 C 0.9375 0.648438 0.914062 0.6875 0.875 0.6875 C 0.769531 0.6875 0.664062 0.550781 0.5625 0.28125 C 0.46875 0.0507812 0.421875 -0.128906 0.421875 -0.265625 C 0.421875 -0.710938 0.597656 -1.078125 0.953125 -1.359375 C 1.273438 -1.609375 1.664062 -1.742188 2.125 -1.765625 L 2.125 -7.875 C 2.125 -8.1875 2.039062 -8.441406 1.875 -8.640625 C 1.707031 -8.835938 1.46875 -8.9375 1.15625 -8.9375 C 0.9375 -8.9375 0.738281 -8.859375 0.5625 -8.703125 C 0.382812 -8.554688 0.296875 -8.378906 0.296875 -8.171875 C 0.296875 -8.035156 0.359375 -7.890625 0.484375 -7.734375 C 0.617188 -7.585938 0.6875 -7.519531 0.6875 -7.53125 C 0.6875 -7.476562 0.65625 -7.453125 0.59375 -7.453125 C 0.425781 -7.453125 0.285156 -7.519531 0.171875 -7.65625 C 0.0546875 -7.800781 0 -7.96875 0 -8.15625 C 0 -8.570312 0.207031 -8.894531 0.625 -9.125 C 0.957031 -9.3125 1.347656 -9.40625 1.796875 -9.40625 C 2.117188 -9.40625 2.453125 -9.304688 2.796875 -9.109375 C 3.078125 -8.910156 3.363281 -8.710938 3.65625 -8.515625 C 4.019531 -8.316406 4.484375 -8.222656 5.046875 -8.234375 L 5.046875 -8 L 4.984375 -8 C 4.609375 -8 4.320312 -7.832031 4.125 -7.5 C 3.945312 -7.207031 3.859375 -6.859375 3.859375 -6.453125 L 3.859375 -5.34375 L 4.4375 -5.34375 L 4.4375 -4.65625 L 3.859375 -4.65625 L 3.859375 -3.03125 C 3.859375 -2.09375 4.253906 -1.59375 5.046875 -1.53125 Z M 1.421875 -1.859375 C 1.335938 -1.828125 1.242188 -1.785156 1.140625 -1.734375 L 1.140625 -4.625 C 1.085938 -4.632812 1.019531 -4.640625 0.9375 -4.640625 C 0.707031 -4.640625 0.566406 -4.554688 0.515625 -4.390625 C 0.492188 -4.328125 0.484375 -4.140625 0.484375 -3.828125 L 0.1875 -3.828125 L 0.1875 -6.09375 L 0.484375 -6.09375 C 0.484375 -5.832031 0.5 -5.660156 0.53125 -5.578125 C 0.59375 -5.460938 0.742188 -5.40625 0.984375 -5.40625 L 1.140625 -5.40625 L 1.140625 -8.734375 C 1.253906 -8.734375 1.347656 -8.722656 1.421875 -8.703125 Z M 1.421875 -1.859375 "/></g></g></g><g fill="#c24914" fill-opacity="1"><g transform="translate(154.654916, 13.215925)"><g><path d="M 6.765625 -7.953125 C 6.441406 -7.921875 6.15625 -7.726562 5.90625 -7.375 C 5.695312 -7.082031 5.554688 -6.75 5.484375 -6.375 C 5.410156 -6.851562 5.289062 -7.203125 5.125 -7.421875 C 4.925781 -7.691406 4.609375 -7.867188 4.171875 -7.953125 L 4.171875 -8.1875 L 4.21875 -8.1875 C 4.4375 -8.1875 4.632812 -8.238281 4.8125 -8.34375 C 5.039062 -8.457031 5.15625 -8.613281 5.15625 -8.8125 C 5.15625 -9.007812 5.035156 -9.109375 4.796875 -9.109375 C 4.222656 -9.109375 3.9375 -8.71875 3.9375 -7.9375 L 3.9375 -5.359375 C 4.257812 -5.367188 4.453125 -5.40625 4.515625 -5.46875 C 4.578125 -5.53125 4.609375 -5.710938 4.609375 -6.015625 L 4.953125 -6.015625 L 4.953125 -3.796875 L 4.609375 -3.796875 C 4.609375 -4.066406 4.585938 -4.253906 4.546875 -4.359375 C 4.460938 -4.503906 4.296875 -4.578125 4.046875 -4.578125 L 3.9375 -4.578125 L 3.9375 -2.8125 L 3.65625 -2.8125 L 3.65625 -7.828125 C 3.65625 -8.929688 4.078125 -9.484375 4.921875 -9.484375 C 5.222656 -9.484375 5.484375 -9.375 5.703125 -9.15625 C 5.859375 -8.945312 6.007812 -8.742188 6.15625 -8.546875 C 6.351562 -8.304688 6.554688 -8.1875 6.765625 -8.1875 Z M 3.46875 -7.953125 C 3.113281 -7.765625 2.9375 -7.113281 2.9375 -6 C 2.9375 -5.757812 2.945312 -5.398438 2.96875 -4.921875 C 2.988281 -4.441406 3 -4.082031 3 -3.84375 C 3 -3.1875 2.941406 -2.722656 2.828125 -2.453125 C 2.691406 -2.128906 2.289062 -1.773438 1.625 -1.390625 C 1.382812 -1.253906 0.867188 -1.007812 0.078125 -0.65625 L 0.078125 -0.8125 C 0.546875 -1.09375 0.851562 -1.363281 1 -1.625 C 1.15625 -1.894531 1.234375 -2.296875 1.234375 -2.828125 L 1.234375 -4.578125 C 0.910156 -4.566406 0.710938 -4.515625 0.640625 -4.421875 C 0.585938 -4.347656 0.5625 -4.140625 0.5625 -3.796875 L 0.21875 -3.796875 L 0.21875 -6.078125 L 0.5625 -6.078125 C 0.5625 -5.773438 0.582031 -5.585938 0.625 -5.515625 C 0.695312 -5.410156 0.875 -5.359375 1.15625 -5.359375 L 1.234375 -5.359375 L 1.234375 -6.734375 C 1.234375 -7.441406 0.820312 -7.847656 0 -7.953125 L 0 -8.1875 C 0.625 -8.226562 1.050781 -8.304688 1.28125 -8.421875 C 1.632812 -8.609375 1.890625 -8.957031 2.046875 -9.46875 C 2.253906 -8.738281 2.726562 -8.3125 3.46875 -8.1875 Z M 6.765625 -1.25 C 6.222656 -1.132812 5.816406 -1.007812 5.546875 -0.875 C 5.160156 -0.664062 4.851562 -0.367188 4.625 0.015625 C 4.1875 -0.398438 3.625 -0.609375 2.9375 -0.609375 C 2.414062 -0.609375 1.972656 -0.53125 1.609375 -0.375 C 1.085938 -0.164062 0.828125 0.164062 0.828125 0.625 C 0.828125 0.757812 0.875 0.90625 0.96875 1.0625 C 1.070312 1.226562 1.125 1.304688 1.125 1.296875 C 1.125 1.347656 1.085938 1.375 1.015625 1.375 C 0.847656 1.375 0.710938 1.273438 0.609375 1.078125 C 0.503906 0.910156 0.453125 0.738281 0.453125 0.5625 C 0.453125 -0.15625 0.910156 -0.726562 1.828125 -1.15625 C 2.410156 -1.425781 2.742188 -1.59375 2.828125 -1.65625 C 3.191406 -1.882812 3.46875 -2.21875 3.65625 -2.65625 L 3.9375 -2.65625 C 4.300781 -2.195312 4.722656 -1.878906 5.203125 -1.703125 C 5.597656 -1.554688 6.117188 -1.484375 6.765625 -1.484375 Z M 6.765625 -1.25 "/></g></g></g><g fill="#c24914" fill-opacity="1"><g transform="translate(165.114655, 13.215925)"><g><path d="M 7.34375 -1.171875 C 6.914062 -1.160156 6.546875 -1.03125 6.234375 -0.78125 C 5.921875 -0.53125 5.71875 -0.207031 5.625 0.1875 C 5.601562 0.1875 5.570312 0.1875 5.53125 0.1875 C 5.375 0.1875 5.179688 0.078125 4.953125 -0.140625 L 4.3125 -0.765625 C 4.03125 -1.003906 3.726562 -1.140625 3.40625 -1.171875 L 3.40625 -1.40625 C 3.769531 -1.40625 3.953125 -1.59375 3.953125 -1.96875 C 3.953125 -2.1875 3.898438 -2.445312 3.796875 -2.75 L 2.21875 -7.40625 L 2.21875 -2.75 C 2.21875 -2.445312 2.300781 -2.15625 2.46875 -1.875 C 2.664062 -1.570312 2.90625 -1.421875 3.1875 -1.421875 L 3.1875 -1.171875 C 2.53125 -1.035156 2.101562 -0.640625 1.90625 0.015625 C 1.71875 -0.367188 1.421875 -0.5625 1.015625 -0.5625 C 0.859375 -0.5625 0.710938 -0.519531 0.578125 -0.4375 C 0.441406 -0.363281 0.375 -0.253906 0.375 -0.109375 C 0.375 -0.0234375 0.421875 0.0703125 0.515625 0.1875 C 0.609375 0.3125 0.65625 0.382812 0.65625 0.40625 C 0.65625 0.457031 0.613281 0.484375 0.53125 0.484375 C 0.382812 0.484375 0.257812 0.378906 0.15625 0.171875 C 0.0625 -0.00390625 0.015625 -0.175781 0.015625 -0.34375 C 0.015625 -0.789062 0.210938 -1.148438 0.609375 -1.421875 C 0.941406 -1.648438 1.34375 -1.773438 1.8125 -1.796875 L 1.8125 -4.421875 C 1.800781 -4.421875 1.757812 -4.421875 1.6875 -4.421875 C 1.4375 -4.421875 1.269531 -4.347656 1.1875 -4.203125 C 1.144531 -4.097656 1.125 -3.898438 1.125 -3.609375 L 0.84375 -3.609375 L 0.84375 -5.84375 L 1.125 -5.84375 C 1.125 -5.53125 1.160156 -5.335938 1.234375 -5.265625 C 1.316406 -5.203125 1.507812 -5.171875 1.8125 -5.171875 L 1.8125 -7.484375 C 1.8125 -8.242188 1.582031 -8.625 1.125 -8.625 C 0.914062 -8.625 0.722656 -8.554688 0.546875 -8.421875 C 0.367188 -8.296875 0.28125 -8.132812 0.28125 -7.9375 C 0.28125 -7.800781 0.34375 -7.664062 0.46875 -7.53125 C 0.601562 -7.40625 0.671875 -7.34375 0.671875 -7.34375 C 0.671875 -7.289062 0.640625 -7.265625 0.578125 -7.265625 C 0.421875 -7.265625 0.285156 -7.332031 0.171875 -7.46875 C 0.0546875 -7.613281 0 -7.78125 0 -7.96875 C 0 -8.363281 0.175781 -8.675781 0.53125 -8.90625 C 0.832031 -9.082031 1.195312 -9.171875 1.625 -9.171875 C 1.945312 -9.171875 2.234375 -9.070312 2.484375 -8.875 C 2.703125 -8.707031 2.9375 -8.53125 3.1875 -8.34375 C 3.550781 -8.144531 4.015625 -8.046875 4.578125 -8.046875 L 4.578125 -7.8125 C 4.304688 -7.8125 4.171875 -7.65625 4.171875 -7.34375 C 4.171875 -6.976562 4.238281 -6.609375 4.375 -6.234375 L 5.921875 -2.15625 L 5.921875 -6.140625 C 5.921875 -6.523438 5.835938 -6.867188 5.671875 -7.171875 C 5.472656 -7.503906 5.207031 -7.71875 4.875 -7.8125 L 4.875 -8.046875 C 5.5625 -8.128906 5.96875 -8.515625 6.09375 -9.203125 C 6.195312 -8.554688 6.613281 -8.171875 7.34375 -8.046875 L 7.34375 -7.8125 C 6.976562 -7.757812 6.703125 -7.554688 6.515625 -7.203125 C 6.367188 -6.910156 6.296875 -6.566406 6.296875 -6.171875 L 6.296875 -2.828125 C 6.296875 -2.066406 6.644531 -1.597656 7.34375 -1.421875 Z M 7.34375 -1.171875 "/></g></g></g><g fill="#c24914" fill-opacity="1"><g transform="translate(176.289138, 13.215925)"><g><path d="M 7.15625 -7.796875 C 6.601562 -7.796875 6.210938 -6.691406 5.984375 -4.484375 C 5.960938 -4.992188 5.847656 -5.625 5.640625 -6.375 C 5.367188 -7.320312 5.070312 -7.796875 4.75 -7.796875 L 4.75 -8.046875 C 5.195312 -8.222656 5.421875 -8.398438 5.421875 -8.578125 C 5.421875 -8.722656 5.273438 -8.796875 4.984375 -8.796875 C 4.648438 -8.796875 4.484375 -8.550781 4.484375 -8.0625 L 4.484375 -2.8125 C 4.484375 -2.351562 4.5625 -2.046875 4.71875 -1.890625 C 4.875 -1.734375 5.191406 -1.640625 5.671875 -1.609375 L 5.671875 -1.375 C 5.273438 -1.332031 4.878906 -1.1875 4.484375 -0.9375 C 4.035156 -0.65625 3.75 -0.347656 3.625 -0.015625 C 3.300781 -0.484375 2.914062 -0.71875 2.46875 -0.71875 C 2.207031 -0.71875 1.992188 -0.648438 1.828125 -0.515625 C 1.660156 -0.390625 1.578125 -0.210938 1.578125 0.015625 C 1.578125 0.234375 1.664062 0.382812 1.84375 0.46875 C 1.9375 0.507812 1.984375 0.539062 1.984375 0.5625 C 1.984375 0.625 1.941406 0.65625 1.859375 0.65625 C 1.640625 0.65625 1.46875 0.539062 1.34375 0.3125 C 1.238281 0.132812 1.1875 -0.0664062 1.1875 -0.296875 C 1.1875 -0.710938 1.34375 -1.0625 1.65625 -1.34375 C 1.945312 -1.601562 2.3125 -1.765625 2.75 -1.828125 L 2.75 -7.796875 C 2.375 -7.796875 2.078125 -7.570312 1.859375 -7.125 C 1.671875 -6.769531 1.539062 -6.300781 1.46875 -5.71875 C 1.4375 -5.445312 1.382812 -5.035156 1.3125 -4.484375 C 1.289062 -5.328125 1.109375 -6.140625 0.765625 -6.921875 C 0.515625 -7.492188 0.269531 -7.785156 0.03125 -7.796875 L 0.03125 -8.046875 C 0.65625 -8.171875 1.054688 -8.519531 1.234375 -9.09375 C 1.453125 -8.394531 1.847656 -8.046875 2.421875 -8.046875 C 2.796875 -8.046875 3.238281 -8.222656 3.75 -8.578125 C 4.257812 -8.929688 4.671875 -9.109375 4.984375 -9.109375 C 5.398438 -9.109375 5.742188 -9.03125 6.015625 -8.875 C 6.097656 -8.832031 6.273438 -8.679688 6.546875 -8.421875 C 6.734375 -8.222656 6.9375 -8.097656 7.15625 -8.046875 Z M 7.15625 -7.796875 "/></g></g></g><g fill="#c24914" fill-opacity="1"><g transform="translate(186.658655, 13.215925)"><g><path d="M 6.765625 -7.953125 C 6.441406 -7.921875 6.15625 -7.726562 5.90625 -7.375 C 5.695312 -7.082031 5.554688 -6.75 5.484375 -6.375 C 5.410156 -6.851562 5.289062 -7.203125 5.125 -7.421875 C 4.925781 -7.691406 4.609375 -7.867188 4.171875 -7.953125 L 4.171875 -8.1875 L 4.21875 -8.1875 C 4.4375 -8.1875 4.632812 -8.238281 4.8125 -8.34375 C 5.039062 -8.457031 5.15625 -8.613281 5.15625 -8.8125 C 5.15625 -9.007812 5.035156 -9.109375 4.796875 -9.109375 C 4.222656 -9.109375 3.9375 -8.71875 3.9375 -7.9375 L 3.9375 -5.359375 C 4.257812 -5.367188 4.453125 -5.40625 4.515625 -5.46875 C 4.578125 -5.53125 4.609375 -5.710938 4.609375 -6.015625 L 4.953125 -6.015625 L 4.953125 -3.796875 L 4.609375 -3.796875 C 4.609375 -4.066406 4.585938 -4.253906 4.546875 -4.359375 C 4.460938 -4.503906 4.296875 -4.578125 4.046875 -4.578125 L 3.9375 -4.578125 L 3.9375 -2.8125 L 3.65625 -2.8125 L 3.65625 -7.828125 C 3.65625 -8.929688 4.078125 -9.484375 4.921875 -9.484375 C 5.222656 -9.484375 5.484375 -9.375 5.703125 -9.15625 C 5.859375 -8.945312 6.007812 -8.742188 6.15625 -8.546875 C 6.351562 -8.304688 6.554688 -8.1875 6.765625 -8.1875 Z M 3.46875 -7.953125 C 3.113281 -7.765625 2.9375 -7.113281 2.9375 -6 C 2.9375 -5.757812 2.945312 -5.398438 2.96875 -4.921875 C 2.988281 -4.441406 3 -4.082031 3 -3.84375 C 3 -3.1875 2.941406 -2.722656 2.828125 -2.453125 C 2.691406 -2.128906 2.289062 -1.773438 1.625 -1.390625 C 1.382812 -1.253906 0.867188 -1.007812 0.078125 -0.65625 L 0.078125 -0.8125 C 0.546875 -1.09375 0.851562 -1.363281 1 -1.625 C 1.15625 -1.894531 1.234375 -2.296875 1.234375 -2.828125 L 1.234375 -4.578125 C 0.910156 -4.566406 0.710938 -4.515625 0.640625 -4.421875 C 0.585938 -4.347656 0.5625 -4.140625 0.5625 -3.796875 L 0.21875 -3.796875 L 0.21875 -6.078125 L 0.5625 -6.078125 C 0.5625 -5.773438 0.582031 -5.585938 0.625 -5.515625 C 0.695312 -5.410156 0.875 -5.359375 1.15625 -5.359375 L 1.234375 -5.359375 L 1.234375 -6.734375 C 1.234375 -7.441406 0.820312 -7.847656 0 -7.953125 L 0 -8.1875 C 0.625 -8.226562 1.050781 -8.304688 1.28125 -8.421875 C 1.632812 -8.609375 1.890625 -8.957031 2.046875 -9.46875 C 2.253906 -8.738281 2.726562 -8.3125 3.46875 -8.1875 Z M 6.765625 -1.25 C 6.222656 -1.132812 5.816406 -1.007812 5.546875 -0.875 C 5.160156 -0.664062 4.851562 -0.367188 4.625 0.015625 C 4.1875 -0.398438 3.625 -0.609375 2.9375 -0.609375 C 2.414062 -0.609375 1.972656 -0.53125 1.609375 -0.375 C 1.085938 -0.164062 0.828125 0.164062 0.828125 0.625 C 0.828125 0.757812 0.875 0.90625 0.96875 1.0625 C 1.070312 1.226562 1.125 1.304688 1.125 1.296875 C 1.125 1.347656 1.085938 1.375 1.015625 1.375 C 0.847656 1.375 0.710938 1.273438 0.609375 1.078125 C 0.503906 0.910156 0.453125 0.738281 0.453125 0.5625 C 0.453125 -0.15625 0.910156 -0.726562 1.828125 -1.15625 C 2.410156 -1.425781 2.742188 -1.59375 2.828125 -1.65625 C 3.191406 -1.882812 3.46875 -2.21875 3.65625 -2.65625 L 3.9375 -2.65625 C 4.300781 -2.195312 4.722656 -1.878906 5.203125 -1.703125 C 5.597656 -1.554688 6.117188 -1.484375 6.765625 -1.484375 Z M 6.765625 -1.25 "/></g></g></g><g fill="#c24914" fill-opacity="1"><g transform="translate(197.118384, 13.215925)"><g><path d="M 3.703125 -2.8125 L 3.421875 -2.8125 L 3.421875 -8.53125 C 3.492188 -8.59375 3.585938 -8.644531 3.703125 -8.6875 Z M 6.125 -7.734375 C 6.019531 -7.722656 5.894531 -7.660156 5.75 -7.546875 C 5.207031 -7.128906 4.945312 -6.492188 4.96875 -5.640625 C 4.914062 -6.191406 4.835938 -6.609375 4.734375 -6.890625 C 4.546875 -7.378906 4.253906 -7.660156 3.859375 -7.734375 L 3.859375 -7.953125 C 4.390625 -8.035156 4.65625 -8.210938 4.65625 -8.484375 C 4.65625 -8.617188 4.585938 -8.726562 4.453125 -8.8125 C 4.328125 -8.90625 4.179688 -8.953125 4.015625 -8.953125 C 3.703125 -8.953125 3.4375 -8.859375 3.21875 -8.671875 C 3.007812 -8.484375 2.90625 -8.242188 2.90625 -7.953125 L 2.90625 -3.6875 C 2.90625 -2.789062 2.679688 -2.128906 2.234375 -1.703125 C 1.921875 -1.398438 1.289062 -1.082031 0.34375 -0.75 L 0.34375 -0.9375 C 0.78125 -1.15625 1.054688 -1.351562 1.171875 -1.53125 C 1.285156 -1.707031 1.34375 -2.035156 1.34375 -2.515625 L 1.34375 -4.53125 C 1.289062 -4.539062 1.238281 -4.546875 1.1875 -4.546875 C 0.976562 -4.546875 0.847656 -4.460938 0.796875 -4.296875 C 0.773438 -4.222656 0.765625 -4.054688 0.765625 -3.796875 L 0.421875 -3.796875 L 0.421875 -5.921875 L 0.765625 -5.921875 C 0.765625 -5.617188 0.78125 -5.441406 0.8125 -5.390625 C 0.875 -5.285156 1.035156 -5.234375 1.296875 -5.234375 L 1.34375 -5.234375 L 1.34375 -6.125 C 1.34375 -6.507812 1.21875 -6.863281 0.96875 -7.1875 C 0.695312 -7.550781 0.375 -7.726562 0 -7.71875 L 0 -7.953125 L 0.140625 -7.953125 C 0.878906 -7.953125 1.457031 -8.0625 1.875 -8.28125 L 2.75 -8.921875 C 3.070312 -9.148438 3.488281 -9.265625 4 -9.265625 C 4.363281 -9.265625 4.675781 -9.164062 4.9375 -8.96875 C 5.019531 -8.894531 5.203125 -8.695312 5.484375 -8.375 C 5.691406 -8.15625 5.90625 -8.015625 6.125 -7.953125 Z M 6.34375 -1.484375 C 5.5 -1.316406 4.84375 -0.828125 4.375 -0.015625 C 3.875 -0.492188 3.28125 -0.734375 2.59375 -0.734375 C 2.15625 -0.734375 1.757812 -0.648438 1.40625 -0.484375 C 0.957031 -0.285156 0.734375 0.00390625 0.734375 0.390625 C 0.734375 0.523438 0.78125 0.664062 0.875 0.8125 C 0.96875 0.96875 1.015625 1.039062 1.015625 1.03125 C 1.015625 1.082031 0.984375 1.109375 0.921875 1.109375 C 0.765625 1.109375 0.632812 1.015625 0.53125 0.828125 C 0.4375 0.691406 0.390625 0.53125 0.390625 0.34375 C 0.390625 -0.320312 0.835938 -0.859375 1.734375 -1.265625 C 2.335938 -1.546875 2.675781 -1.710938 2.75 -1.765625 C 3.113281 -1.992188 3.382812 -2.285156 3.5625 -2.640625 C 3.863281 -2.253906 4.285156 -1.992188 4.828125 -1.859375 C 5.191406 -1.765625 5.695312 -1.71875 6.34375 -1.71875 Z M 6.34375 -1.484375 "/></g></g></g><g fill="#c24914" fill-opacity="1"><g transform="translate(207.029907, 13.215925)"><g><path d="M 6.671875 -1.109375 C 6.066406 -1.109375 5.550781 -0.984375 5.125 -0.734375 C 4.820312 -0.515625 4.515625 -0.289062 4.203125 -0.0625 C 3.835938 0.164062 3.488281 0.28125 3.15625 0.28125 C 2.414062 0.28125 1.695312 -0.242188 1 -1.296875 C 0.351562 -2.265625 0.03125 -3.144531 0.03125 -3.9375 C 0.03125 -4.832031 0.359375 -5.753906 1.015625 -6.703125 C 1.585938 -7.535156 2.296875 -8.222656 3.140625 -8.765625 C 3.203125 -8.804688 3.253906 -8.828125 3.296875 -8.828125 C 3.347656 -8.828125 3.375 -8.804688 3.375 -8.765625 C 3.375 -8.742188 3.347656 -8.710938 3.296875 -8.671875 C 2.472656 -7.929688 2.0625 -7.097656 2.0625 -6.171875 L 2.0625 -1.890625 C 2.0625 -0.671875 2.46875 -0.0625 3.28125 -0.0625 C 3.8125 -0.0625 4.078125 -0.625 4.078125 -1.75 L 4.078125 -6.34375 C 4.078125 -7.019531 3.898438 -7.359375 3.546875 -7.359375 C 3.265625 -7.359375 2.882812 -7.132812 2.40625 -6.6875 L 2.296875 -6.859375 C 3.585938 -7.898438 4.347656 -8.769531 4.578125 -9.46875 C 4.691406 -9.09375 4.972656 -8.773438 5.421875 -8.515625 C 5.828125 -8.265625 6.242188 -8.125 6.671875 -8.09375 L 6.671875 -7.84375 C 6.128906 -7.757812 5.859375 -7.222656 5.859375 -6.234375 L 5.859375 -2.34375 C 5.859375 -1.71875 6.128906 -1.382812 6.671875 -1.34375 Z M 3.25 -0.265625 C 3.164062 -0.265625 3.066406 -0.28125 2.953125 -0.3125 L 2.953125 -6.875 C 3.046875 -6.945312 3.144531 -7.015625 3.25 -7.078125 Z M 3.25 -0.265625 "/></g></g></g><g fill="#c24914" fill-opacity="1"><g transform="translate(217.600674, 13.215925)"><g><path d="M 7.0625 1.640625 C 6.394531 1.441406 5.941406 1.289062 5.703125 1.1875 C 5.148438 0.925781 4.8125 0.625 4.6875 0.28125 C 4.613281 0.101562 4.578125 -0.285156 4.578125 -0.890625 L 4.578125 -3.421875 C 4.578125 -3.878906 4.453125 -4.191406 4.203125 -4.359375 C 4.003906 -4.503906 3.664062 -4.59375 3.1875 -4.625 L 3.1875 -2.953125 C 3.1875 -2.554688 3.242188 -2.265625 3.359375 -2.078125 C 3.492188 -1.847656 3.75 -1.71875 4.125 -1.6875 L 4.125 -1.453125 C 3.75 -1.421875 3.378906 -1.253906 3.015625 -0.953125 C 2.660156 -0.660156 2.445312 -0.335938 2.375 0.015625 C 2.050781 -0.460938 1.644531 -0.703125 1.15625 -0.703125 C 0.914062 -0.703125 0.710938 -0.632812 0.546875 -0.5 C 0.390625 -0.375 0.3125 -0.203125 0.3125 0.015625 C 0.3125 0.253906 0.398438 0.40625 0.578125 0.46875 C 0.671875 0.5 0.71875 0.53125 0.71875 0.5625 C 0.71875 0.613281 0.675781 0.640625 0.59375 0.640625 C 0.375 0.640625 0.207031 0.53125 0.09375 0.3125 C -0.0195312 0.132812 -0.078125 -0.0664062 -0.078125 -0.296875 C -0.078125 -1.066406 0.425781 -1.53125 1.4375 -1.6875 L 1.4375 -4.625 C 1.15625 -4.613281 0.988281 -4.546875 0.9375 -4.421875 C 0.914062 -4.359375 0.90625 -4.171875 0.90625 -3.859375 L 0.5625 -3.859375 L 0.5625 -6.125 L 0.90625 -6.125 L 0.90625 -5.96875 C 0.90625 -5.925781 0.90625 -5.875 0.90625 -5.8125 C 0.90625 -5.519531 1.050781 -5.375 1.34375 -5.375 L 1.4375 -5.375 L 1.4375 -6.453125 C 1.4375 -6.878906 1.332031 -7.234375 1.125 -7.515625 C 0.882812 -7.835938 0.554688 -7.992188 0.140625 -7.984375 L 0.140625 -8.234375 L 1.25 -8.234375 C 1.875 -8.234375 2.34375 -8.296875 2.65625 -8.421875 C 2.800781 -8.492188 3.03125 -8.644531 3.34375 -8.875 C 3.65625 -9.113281 3.992188 -9.28125 4.359375 -9.375 C 4.484375 -9.40625 4.59375 -9.421875 4.6875 -9.421875 C 4.84375 -9.421875 4.96875 -9.363281 5.0625 -9.25 C 5.382812 -8.914062 5.664062 -8.675781 5.90625 -8.53125 C 6.195312 -8.363281 6.546875 -8.265625 6.953125 -8.234375 L 6.953125 -7.984375 C 6.671875 -7.960938 6.476562 -7.859375 6.375 -7.671875 C 6.28125 -7.523438 6.234375 -7.300781 6.234375 -7 L 6.234375 -5.953125 C 6.234375 -5.585938 6.023438 -5.300781 5.609375 -5.09375 C 5.296875 -4.945312 4.925781 -4.851562 4.5 -4.8125 C 4.820312 -4.800781 5.195312 -4.664062 5.625 -4.40625 C 6.050781 -4.15625 6.359375 -4.03125 6.546875 -4.03125 C 6.671875 -4.03125 6.804688 -4.050781 6.953125 -4.09375 L 6.953125 -3.859375 C 6.398438 -3.742188 6.125 -3.4375 6.125 -2.9375 L 6.125 -0.0625 C 6.125 0.570312 6.4375 1.050781 7.0625 1.375 Z M 4.578125 -5.59375 L 4.578125 -6.921875 C 4.578125 -7.316406 4.441406 -7.625 4.171875 -7.84375 C 3.960938 -8 3.632812 -8.128906 3.1875 -8.234375 L 3.1875 -4.953125 C 3.65625 -4.972656 3.945312 -5.003906 4.0625 -5.046875 C 4.40625 -5.128906 4.578125 -5.3125 4.578125 -5.59375 Z M 4.578125 -5.59375 "/></g></g></g></g></g></svg>